<?xml version="1.0" encoding="utf-8" standalone="no"?>
<!DOCTYPE svg PUBLIC "-//W3C//DTD SVG 1.1//EN"
  "http://www.w3.org/Graphics/SVG/1.1/DTD/svg11.dtd">
<svg xmlns:xlink="http://www.w3.org/1999/xlink" width="432pt" height="432pt" viewBox="0 0 432 432" xmlns="http://www.w3.org/2000/svg" version="1.1">
 <metadata>
  <rdf:RDF xmlns:dc="http://purl.org/dc/elements/1.1/" xmlns:cc="http://creativecommons.org/ns#" xmlns:rdf="http://www.w3.org/1999/02/22-rdf-syntax-ns#">
   <cc:Work>
    <dc:type rdf:resource="http://purl.org/dc/dcmitype/StillImage"/>
    <dc:date>2024-08-21T13:24:35.343631</dc:date>
    <dc:format>image/svg+xml</dc:format>
    <dc:creator>
     <cc:Agent>
      <dc:title>Matplotlib v3.7.2, https://matplotlib.org/</dc:title>
     </cc:Agent>
    </dc:creator>
   </cc:Work>
  </rdf:RDF>
 </metadata>
 <defs>
  <style type="text/css">*{stroke-linejoin: round; stroke-linecap: butt}</style>
 </defs>
 <g id="figure_1">
  <g id="patch_1">
   <path d="M 0 432 
L 432 432 
L 432 0 
L 0 0 
L 0 432 
z
" style="fill: none"/>
  </g>
  <g id="axes_1">
   <g id="patch_2">
    <path d="M 70.55 134.733333 
L 233.372213 134.733333 
L 233.372213 27.8 
L 70.55 27.8 
z
" style="fill: #ffffff"/>
   </g>
   <g id="PolyCollection_1">
    <defs>
     <path id="md462bdfb33" d="M 77.95101 -297.266667 
L 77.95101 -298.066562 
L 80.97183 -298.413009 
L 83.99265 -298.885058 
L 87.013471 -299.517487 
L 90.034291 -300.35047 
L 93.055111 -301.428846 
L 96.075931 -302.800718 
L 99.096752 -304.515262 
L 102.117572 -306.619707 
L 105.138392 -309.155523 
L 108.159212 -312.153956 
L 111.180033 -315.631182 
L 114.200853 -319.583452 
L 117.221673 -323.982706 
L 120.242494 -328.773215 
L 123.263314 -333.869766 
L 126.284134 -339.157905 
L 129.304954 -344.496546 
L 132.325775 -349.7231 
L 135.346595 -354.660996 
L 138.367415 -359.129172 
L 141.388236 -362.952894 
L 144.409056 -365.975003 
L 147.429876 -368.066599 
L 150.450696 -369.136154 
L 153.471517 -369.136154 
L 156.492337 -368.066599 
L 159.513157 -365.975003 
L 162.533977 -362.952894 
L 165.554798 -359.129172 
L 168.575618 -354.660996 
L 171.596438 -349.7231 
L 174.617259 -344.496546 
L 177.638079 -339.157905 
L 180.658899 -333.869766 
L 183.679719 -328.773215 
L 186.70054 -323.982706 
L 189.72136 -319.583452 
L 192.74218 -315.631182 
L 195.763001 -312.153956 
L 198.783821 -309.155523 
L 201.804641 -306.619707 
L 204.825461 -304.515262 
L 207.846282 -302.800718 
L 210.867102 -301.428846 
L 213.887922 -300.35047 
L 216.908742 -299.517487 
L 219.929563 -298.885058 
L 222.950383 -298.413009 
L 225.971203 -298.066562 
L 225.971203 -297.266667 
L 225.971203 -297.266667 
L 222.950383 -297.266667 
L 219.929563 -297.266667 
L 216.908742 -297.266667 
L 213.887922 -297.266667 
L 210.867102 -297.266667 
L 207.846282 -297.266667 
L 204.825461 -297.266667 
L 201.804641 -297.266667 
L 198.783821 -297.266667 
L 195.763001 -297.266667 
L 192.74218 -297.266667 
L 189.72136 -297.266667 
L 186.70054 -297.266667 
L 183.679719 -297.266667 
L 180.658899 -297.266667 
L 177.638079 -297.266667 
L 174.617259 -297.266667 
L 171.596438 -297.266667 
L 168.575618 -297.266667 
L 165.554798 -297.266667 
L 162.533977 -297.266667 
L 159.513157 -297.266667 
L 156.492337 -297.266667 
L 153.471517 -297.266667 
L 150.450696 -297.266667 
L 147.429876 -297.266667 
L 144.409056 -297.266667 
L 141.388236 -297.266667 
L 138.367415 -297.266667 
L 135.346595 -297.266667 
L 132.325775 -297.266667 
L 129.304954 -297.266667 
L 126.284134 -297.266667 
L 123.263314 -297.266667 
L 120.242494 -297.266667 
L 117.221673 -297.266667 
L 114.200853 -297.266667 
L 111.180033 -297.266667 
L 108.159212 -297.266667 
L 105.138392 -297.266667 
L 102.117572 -297.266667 
L 99.096752 -297.266667 
L 96.075931 -297.266667 
L 93.055111 -297.266667 
L 90.034291 -297.266667 
L 87.013471 -297.266667 
L 83.99265 -297.266667 
L 80.97183 -297.266667 
L 77.95101 -297.266667 
z
" style="stroke: #f08080; stroke-opacity: 0.3"/>
    </defs>
    <g clip-path="url(#p4e52f48ff0)">
     <use xlink:href="#md462bdfb33" x="0" y="432" style="fill: #f08080; fill-opacity: 0.3; stroke: #f08080; stroke-opacity: 0.3"/>
    </g>
   </g>
   <g id="patch_3">
    <path d="M 86.193498 134.733333 
L 86.193498 132.609576 
L 90.386676 132.609576 
L 90.386676 133.671455 
L 94.579854 133.671455 
L 94.579854 134.733333 
L 98.773032 134.733333 
L 98.773032 133.671455 
L 102.966209 133.671455 
L 102.966209 131.547697 
L 107.159387 131.547697 
L 107.159387 128.362062 
L 111.352565 128.362062 
L 111.352565 126.238304 
L 115.545743 126.238304 
L 115.545743 126.238304 
L 119.738921 126.238304 
L 119.738921 119.867032 
L 123.932098 119.867032 
L 123.932098 113.495761 
L 128.125276 113.495761 
L 128.125276 81.639402 
L 132.318454 81.639402 
L 132.318454 85.886916 
L 136.511632 85.886916 
L 136.511632 64.649343 
L 140.704809 64.649343 
L 140.704809 48.721164 
L 144.897987 48.721164 
L 144.897987 43.411771 
L 149.091165 43.411771 
L 149.091165 40.226135 
L 153.284343 40.226135 
L 153.284343 46.597407 
L 157.477521 46.597407 
L 157.477521 49.783042 
L 161.670698 49.783042 
L 161.670698 54.030557 
L 165.863876 54.030557 
L 165.863876 62.525586 
L 170.057054 62.525586 
L 170.057054 72.082494 
L 174.250232 72.082494 
L 174.250232 90.134431 
L 178.443409 90.134431 
L 178.443409 90.134431 
L 182.636587 90.134431 
L 182.636587 106.06261 
L 186.829765 106.06261 
L 186.829765 111.372003 
L 191.022943 111.372003 
L 191.022943 123.052668 
L 195.216121 123.052668 
L 195.216121 129.42394 
L 199.409298 129.42394 
L 199.409298 133.671455 
L 203.602476 133.671455 
L 203.602476 132.609576 
L 207.795654 132.609576 
L 207.795654 133.671455 
L 211.988832 133.671455 
L 211.988832 134.733333 
L 207.795654 134.733333 
L 207.795654 134.733333 
L 203.602476 134.733333 
L 203.602476 134.733333 
L 199.409298 134.733333 
L 199.409298 134.733333 
L 195.216121 134.733333 
L 195.216121 134.733333 
L 191.022943 134.733333 
L 191.022943 134.733333 
L 186.829765 134.733333 
L 186.829765 134.733333 
L 182.636587 134.733333 
L 182.636587 134.733333 
L 178.443409 134.733333 
L 178.443409 134.733333 
L 174.250232 134.733333 
L 174.250232 134.733333 
L 170.057054 134.733333 
L 170.057054 134.733333 
L 165.863876 134.733333 
L 165.863876 134.733333 
L 161.670698 134.733333 
L 161.670698 134.733333 
L 157.477521 134.733333 
L 157.477521 134.733333 
L 153.284343 134.733333 
L 153.284343 134.733333 
L 149.091165 134.733333 
L 149.091165 134.733333 
L 144.897987 134.733333 
L 144.897987 134.733333 
L 140.704809 134.733333 
L 140.704809 134.733333 
L 136.511632 134.733333 
L 136.511632 134.733333 
L 132.318454 134.733333 
L 132.318454 134.733333 
L 128.125276 134.733333 
L 128.125276 134.733333 
L 123.932098 134.733333 
L 123.932098 134.733333 
L 119.738921 134.733333 
L 119.738921 134.733333 
L 115.545743 134.733333 
L 115.545743 134.733333 
L 111.352565 134.733333 
L 111.352565 134.733333 
L 107.159387 134.733333 
L 107.159387 134.733333 
L 102.966209 134.733333 
L 102.966209 134.733333 
L 98.773032 134.733333 
L 98.773032 134.733333 
L 94.579854 134.733333 
L 94.579854 134.733333 
L 90.386676 134.733333 
L 90.386676 134.733333 
z
" clip-path="url(#p4e52f48ff0)" style="fill: #4682b4; opacity: 0.5"/>
   </g>
   <g id="matplotlib.axis_1">
    <g id="xtick_1">
     <g id="line2d_1">
      <defs>
       <path id="ma15cda4771" d="M 0 0 
L 0 3.5 
" style="stroke: #000000; stroke-width: 0.8"/>
      </defs>
      <g>
       <use xlink:href="#ma15cda4771" x="93.904297" y="134.733333" style="stroke: #000000; stroke-width: 0.8"/>
      </g>
     </g>
     <g id="text_1">
      <!-- −1500 -->
      <g transform="translate(76.989453 149.331771) scale(0.1 -0.1)">
       <defs>
        <path id="DejaVuSans-2212" d="M 678 2272 
L 4684 2272 
L 4684 1741 
L 678 1741 
L 678 2272 
z
" transform="scale(0.015625)"/>
        <path id="DejaVuSans-31" d="M 794 531 
L 1825 531 
L 1825 4091 
L 703 3866 
L 703 4441 
L 1819 4666 
L 2450 4666 
L 2450 531 
L 3481 531 
L 3481 0 
L 794 0 
L 794 531 
z
" transform="scale(0.015625)"/>
        <path id="DejaVuSans-35" d="M 691 4666 
L 3169 4666 
L 3169 4134 
L 1269 4134 
L 1269 2991 
Q 1406 3038 1543 3061 
Q 1681 3084 1819 3084 
Q 2600 3084 3056 2656 
Q 3513 2228 3513 1497 
Q 3513 744 3044 326 
Q 2575 -91 1722 -91 
Q 1428 -91 1123 -41 
Q 819 9 494 109 
L 494 744 
Q 775 591 1075 516 
Q 1375 441 1709 441 
Q 2250 441 2565 725 
Q 2881 1009 2881 1497 
Q 2881 1984 2565 2268 
Q 2250 2553 1709 2553 
Q 1456 2553 1204 2497 
Q 953 2441 691 2322 
L 691 4666 
z
" transform="scale(0.015625)"/>
        <path id="DejaVuSans-30" d="M 2034 4250 
Q 1547 4250 1301 3770 
Q 1056 3291 1056 2328 
Q 1056 1369 1301 889 
Q 1547 409 2034 409 
Q 2525 409 2770 889 
Q 3016 1369 3016 2328 
Q 3016 3291 2770 3770 
Q 2525 4250 2034 4250 
z
M 2034 4750 
Q 2819 4750 3233 4129 
Q 3647 3509 3647 2328 
Q 3647 1150 3233 529 
Q 2819 -91 2034 -91 
Q 1250 -91 836 529 
Q 422 1150 422 2328 
Q 422 3509 836 4129 
Q 1250 4750 2034 4750 
z
" transform="scale(0.015625)"/>
       </defs>
       <use xlink:href="#DejaVuSans-2212"/>
       <use xlink:href="#DejaVuSans-31" x="83.789062"/>
       <use xlink:href="#DejaVuSans-35" x="147.412109"/>
       <use xlink:href="#DejaVuSans-30" x="211.035156"/>
       <use xlink:href="#DejaVuSans-30" x="274.658203"/>
      </g>
     </g>
    </g>
    <g id="xtick_2">
     <g id="line2d_2">
      <g>
       <use xlink:href="#ma15cda4771" x="135.021018" y="134.733333" style="stroke: #000000; stroke-width: 0.8"/>
      </g>
     </g>
     <g id="text_2">
      <!-- −1000 -->
      <g transform="translate(118.106174 149.331771) scale(0.1 -0.1)">
       <use xlink:href="#DejaVuSans-2212"/>
       <use xlink:href="#DejaVuSans-31" x="83.789062"/>
       <use xlink:href="#DejaVuSans-30" x="147.412109"/>
       <use xlink:href="#DejaVuSans-30" x="211.035156"/>
       <use xlink:href="#DejaVuSans-30" x="274.658203"/>
      </g>
     </g>
    </g>
    <g id="xtick_3">
     <g id="line2d_3">
      <g>
       <use xlink:href="#ma15cda4771" x="176.137738" y="134.733333" style="stroke: #000000; stroke-width: 0.8"/>
      </g>
     </g>
     <g id="text_3">
      <!-- −500 -->
      <g transform="translate(162.404144 149.331771) scale(0.1 -0.1)">
       <use xlink:href="#DejaVuSans-2212"/>
       <use xlink:href="#DejaVuSans-35" x="83.789062"/>
       <use xlink:href="#DejaVuSans-30" x="147.412109"/>
       <use xlink:href="#DejaVuSans-30" x="211.035156"/>
      </g>
     </g>
    </g>
    <g id="xtick_4">
     <g id="line2d_4">
      <g>
       <use xlink:href="#ma15cda4771" x="217.254459" y="134.733333" style="stroke: #000000; stroke-width: 0.8"/>
      </g>
     </g>
     <g id="text_4">
      <!-- 0 -->
      <g transform="translate(214.073209 149.331771) scale(0.1 -0.1)">
       <use xlink:href="#DejaVuSans-30"/>
      </g>
     </g>
    </g>
   </g>
   <g id="matplotlib.axis_2">
    <g id="ytick_1">
     <g id="line2d_5">
      <defs>
       <path id="mae5e3017f5" d="M 0 0 
L -3.5 0 
" style="stroke: #000000; stroke-width: 0.8"/>
      </defs>
      <g>
       <use xlink:href="#mae5e3017f5" x="70.55" y="134.733333" style="stroke: #000000; stroke-width: 0.8"/>
      </g>
     </g>
     <g id="text_5">
      <!-- 0.0000 -->
      <g transform="translate(28.559375 138.532552) scale(0.1 -0.1)">
       <defs>
        <path id="DejaVuSans-2e" d="M 684 794 
L 1344 794 
L 1344 0 
L 684 0 
L 684 794 
z
" transform="scale(0.015625)"/>
       </defs>
       <use xlink:href="#DejaVuSans-30"/>
       <use xlink:href="#DejaVuSans-2e" x="63.623047"/>
       <use xlink:href="#DejaVuSans-30" x="95.410156"/>
       <use xlink:href="#DejaVuSans-30" x="159.033203"/>
       <use xlink:href="#DejaVuSans-30" x="222.65625"/>
       <use xlink:href="#DejaVuSans-30" x="286.279297"/>
      </g>
     </g>
    </g>
    <g id="ytick_2">
     <g id="line2d_6">
      <g>
       <use xlink:href="#mae5e3017f5" x="70.55" y="107.660127" style="stroke: #000000; stroke-width: 0.8"/>
      </g>
     </g>
     <g id="text_6">
      <!-- 0.0005 -->
      <g transform="translate(28.559375 111.459345) scale(0.1 -0.1)">
       <use xlink:href="#DejaVuSans-30"/>
       <use xlink:href="#DejaVuSans-2e" x="63.623047"/>
       <use xlink:href="#DejaVuSans-30" x="95.410156"/>
       <use xlink:href="#DejaVuSans-30" x="159.033203"/>
       <use xlink:href="#DejaVuSans-30" x="222.65625"/>
       <use xlink:href="#DejaVuSans-35" x="286.279297"/>
      </g>
     </g>
    </g>
    <g id="ytick_3">
     <g id="line2d_7">
      <g>
       <use xlink:href="#mae5e3017f5" x="70.55" y="80.58692" style="stroke: #000000; stroke-width: 0.8"/>
      </g>
     </g>
     <g id="text_7">
      <!-- 0.0010 -->
      <g transform="translate(28.559375 84.386138) scale(0.1 -0.1)">
       <use xlink:href="#DejaVuSans-30"/>
       <use xlink:href="#DejaVuSans-2e" x="63.623047"/>
       <use xlink:href="#DejaVuSans-30" x="95.410156"/>
       <use xlink:href="#DejaVuSans-30" x="159.033203"/>
       <use xlink:href="#DejaVuSans-31" x="222.65625"/>
       <use xlink:href="#DejaVuSans-30" x="286.279297"/>
      </g>
     </g>
    </g>
    <g id="ytick_4">
     <g id="line2d_8">
      <g>
       <use xlink:href="#mae5e3017f5" x="70.55" y="53.513713" style="stroke: #000000; stroke-width: 0.8"/>
      </g>
     </g>
     <g id="text_8">
      <!-- 0.0015 -->
      <g transform="translate(28.559375 57.312932) scale(0.1 -0.1)">
       <use xlink:href="#DejaVuSans-30"/>
       <use xlink:href="#DejaVuSans-2e" x="63.623047"/>
       <use xlink:href="#DejaVuSans-30" x="95.410156"/>
       <use xlink:href="#DejaVuSans-30" x="159.033203"/>
       <use xlink:href="#DejaVuSans-31" x="222.65625"/>
       <use xlink:href="#DejaVuSans-35" x="286.279297"/>
      </g>
     </g>
    </g>
    <g id="text_9">
     <!-- Density -->
     <g transform="translate(21.647812 107.878698) rotate(-90) scale(0.14 -0.14)">
      <defs>
       <path id="DejaVuSans-44" d="M 1259 4147 
L 1259 519 
L 2022 519 
Q 2988 519 3436 956 
Q 3884 1394 3884 2338 
Q 3884 3275 3436 3711 
Q 2988 4147 2022 4147 
L 1259 4147 
z
M 628 4666 
L 1925 4666 
Q 3281 4666 3915 4102 
Q 4550 3538 4550 2338 
Q 4550 1131 3912 565 
Q 3275 0 1925 0 
L 628 0 
L 628 4666 
z
" transform="scale(0.015625)"/>
       <path id="DejaVuSans-65" d="M 3597 1894 
L 3597 1613 
L 953 1613 
Q 991 1019 1311 708 
Q 1631 397 2203 397 
Q 2534 397 2845 478 
Q 3156 559 3463 722 
L 3463 178 
Q 3153 47 2828 -22 
Q 2503 -91 2169 -91 
Q 1331 -91 842 396 
Q 353 884 353 1716 
Q 353 2575 817 3079 
Q 1281 3584 2069 3584 
Q 2775 3584 3186 3129 
Q 3597 2675 3597 1894 
z
M 3022 2063 
Q 3016 2534 2758 2815 
Q 2500 3097 2075 3097 
Q 1594 3097 1305 2825 
Q 1016 2553 972 2059 
L 3022 2063 
z
" transform="scale(0.015625)"/>
       <path id="DejaVuSans-6e" d="M 3513 2113 
L 3513 0 
L 2938 0 
L 2938 2094 
Q 2938 2591 2744 2837 
Q 2550 3084 2163 3084 
Q 1697 3084 1428 2787 
Q 1159 2491 1159 1978 
L 1159 0 
L 581 0 
L 581 3500 
L 1159 3500 
L 1159 2956 
Q 1366 3272 1645 3428 
Q 1925 3584 2291 3584 
Q 2894 3584 3203 3211 
Q 3513 2838 3513 2113 
z
" transform="scale(0.015625)"/>
       <path id="DejaVuSans-73" d="M 2834 3397 
L 2834 2853 
Q 2591 2978 2328 3040 
Q 2066 3103 1784 3103 
Q 1356 3103 1142 2972 
Q 928 2841 928 2578 
Q 928 2378 1081 2264 
Q 1234 2150 1697 2047 
L 1894 2003 
Q 2506 1872 2764 1633 
Q 3022 1394 3022 966 
Q 3022 478 2636 193 
Q 2250 -91 1575 -91 
Q 1294 -91 989 -36 
Q 684 19 347 128 
L 347 722 
Q 666 556 975 473 
Q 1284 391 1588 391 
Q 1994 391 2212 530 
Q 2431 669 2431 922 
Q 2431 1156 2273 1281 
Q 2116 1406 1581 1522 
L 1381 1569 
Q 847 1681 609 1914 
Q 372 2147 372 2553 
Q 372 3047 722 3315 
Q 1072 3584 1716 3584 
Q 2034 3584 2315 3537 
Q 2597 3491 2834 3397 
z
" transform="scale(0.015625)"/>
       <path id="DejaVuSans-69" d="M 603 3500 
L 1178 3500 
L 1178 0 
L 603 0 
L 603 3500 
z
M 603 4863 
L 1178 4863 
L 1178 4134 
L 603 4134 
L 603 4863 
z
" transform="scale(0.015625)"/>
       <path id="DejaVuSans-74" d="M 1172 4494 
L 1172 3500 
L 2356 3500 
L 2356 3053 
L 1172 3053 
L 1172 1153 
Q 1172 725 1289 603 
Q 1406 481 1766 481 
L 2356 481 
L 2356 0 
L 1766 0 
Q 1100 0 847 248 
Q 594 497 594 1153 
L 594 3053 
L 172 3053 
L 172 3500 
L 594 3500 
L 594 4494 
L 1172 4494 
z
" transform="scale(0.015625)"/>
       <path id="DejaVuSans-79" d="M 2059 -325 
Q 1816 -950 1584 -1140 
Q 1353 -1331 966 -1331 
L 506 -1331 
L 506 -850 
L 844 -850 
Q 1081 -850 1212 -737 
Q 1344 -625 1503 -206 
L 1606 56 
L 191 3500 
L 800 3500 
L 1894 763 
L 2988 3500 
L 3597 3500 
L 2059 -325 
z
" transform="scale(0.015625)"/>
      </defs>
      <use xlink:href="#DejaVuSans-44"/>
      <use xlink:href="#DejaVuSans-65" x="77.001953"/>
      <use xlink:href="#DejaVuSans-6e" x="138.525391"/>
      <use xlink:href="#DejaVuSans-73" x="201.904297"/>
      <use xlink:href="#DejaVuSans-69" x="254.003906"/>
      <use xlink:href="#DejaVuSans-74" x="281.787109"/>
      <use xlink:href="#DejaVuSans-79" x="320.996094"/>
     </g>
    </g>
   </g>
   <g id="line2d_9">
    <path d="M 77.95101 133.933438 
L 80.97183 133.586991 
L 83.99265 133.114942 
L 87.013471 132.482513 
L 90.034291 131.64953 
L 93.055111 130.571154 
L 96.075931 129.199282 
L 99.096752 127.484738 
L 102.117572 125.380293 
L 105.138392 122.844477 
L 108.159212 119.846044 
L 111.180033 116.368818 
L 114.200853 112.416548 
L 117.221673 108.017294 
L 120.242494 103.226785 
L 123.263314 98.130234 
L 126.284134 92.842095 
L 129.304954 87.503454 
L 132.325775 82.2769 
L 135.346595 77.339004 
L 138.367415 72.870828 
L 141.388236 69.047106 
L 144.409056 66.024997 
L 147.429876 63.933401 
L 150.450696 62.863846 
L 153.471517 62.863846 
L 156.492337 63.933401 
L 159.513157 66.024997 
L 162.533977 69.047106 
L 165.554798 72.870828 
L 168.575618 77.339004 
L 171.596438 82.2769 
L 174.617259 87.503454 
L 177.638079 92.842095 
L 180.658899 98.130234 
L 183.679719 103.226785 
L 186.70054 108.017294 
L 189.72136 112.416548 
L 192.74218 116.368818 
L 195.763001 119.846044 
L 198.783821 122.844477 
L 201.804641 125.380293 
L 204.825461 127.484738 
L 207.846282 129.199282 
L 210.867102 130.571154 
L 213.887922 131.64953 
L 216.908742 132.482513 
L 219.929563 133.114942 
L 222.950383 133.586991 
L 225.971203 133.933438 
" clip-path="url(#p4e52f48ff0)" style="fill: none; stroke: #f08080; stroke-opacity: 0.8; stroke-width: 1.5; stroke-linecap: square"/>
   </g>
   <g id="line2d_10">
    <path d="M 154.690565 134.733333 
L 154.690565 27.8 
" clip-path="url(#p4e52f48ff0)" style="fill: none; stroke: #4682b4; stroke-width: 1.5; stroke-linecap: square"/>
   </g>
   <g id="patch_4">
    <path d="M 70.55 134.733333 
L 70.55 27.8 
" style="fill: none; stroke: #000000; stroke-width: 0.8; stroke-linejoin: miter; stroke-linecap: square"/>
   </g>
   <g id="patch_5">
    <path d="M 233.372213 134.733333 
L 233.372213 27.8 
" style="fill: none; stroke: #000000; stroke-width: 0.8; stroke-linejoin: miter; stroke-linecap: square"/>
   </g>
   <g id="patch_6">
    <path d="M 70.55 134.733333 
L 233.372213 134.733333 
" style="fill: none; stroke: #000000; stroke-width: 0.8; stroke-linejoin: miter; stroke-linecap: square"/>
   </g>
   <g id="patch_7">
    <path d="M 70.55 27.8 
L 233.372213 27.8 
" style="fill: none; stroke: #000000; stroke-width: 0.8; stroke-linejoin: miter; stroke-linecap: square"/>
   </g>
   <g id="text_10">
    <!-- Z [m] -->
    <g transform="translate(132.660794 21.8) scale(0.14 -0.14)">
     <defs>
      <path id="DejaVuSans-5a" d="M 359 4666 
L 4025 4666 
L 4025 4184 
L 1075 531 
L 4097 531 
L 4097 0 
L 288 0 
L 288 481 
L 3238 4134 
L 359 4134 
L 359 4666 
z
" transform="scale(0.015625)"/>
      <path id="DejaVuSans-20" transform="scale(0.015625)"/>
      <path id="DejaVuSans-5b" d="M 550 4863 
L 1875 4863 
L 1875 4416 
L 1125 4416 
L 1125 -397 
L 1875 -397 
L 1875 -844 
L 550 -844 
L 550 4863 
z
" transform="scale(0.015625)"/>
      <path id="DejaVuSans-6d" d="M 3328 2828 
Q 3544 3216 3844 3400 
Q 4144 3584 4550 3584 
Q 5097 3584 5394 3201 
Q 5691 2819 5691 2113 
L 5691 0 
L 5113 0 
L 5113 2094 
Q 5113 2597 4934 2840 
Q 4756 3084 4391 3084 
Q 3944 3084 3684 2787 
Q 3425 2491 3425 1978 
L 3425 0 
L 2847 0 
L 2847 2094 
Q 2847 2600 2669 2842 
Q 2491 3084 2119 3084 
Q 1678 3084 1418 2786 
Q 1159 2488 1159 1978 
L 1159 0 
L 581 0 
L 581 3500 
L 1159 3500 
L 1159 2956 
Q 1356 3278 1631 3431 
Q 1906 3584 2284 3584 
Q 2666 3584 2933 3390 
Q 3200 3197 3328 2828 
z
" transform="scale(0.015625)"/>
      <path id="DejaVuSans-5d" d="M 1947 4863 
L 1947 -844 
L 622 -844 
L 622 -397 
L 1369 -397 
L 1369 4416 
L 622 4416 
L 622 4863 
L 1947 4863 
z
" transform="scale(0.015625)"/>
     </defs>
     <use xlink:href="#DejaVuSans-5a"/>
     <use xlink:href="#DejaVuSans-20" x="68.505859"/>
     <use xlink:href="#DejaVuSans-5b" x="100.292969"/>
     <use xlink:href="#DejaVuSans-6d" x="139.306641"/>
     <use xlink:href="#DejaVuSans-5d" x="236.71875"/>
    </g>
   </g>
   <g id="legend_1">
    <g id="patch_8">
     <path d="M 94.884713 90.24125 
L 224.972213 90.24125 
Q 227.372213 90.24125 227.372213 87.84125 
L 227.372213 36.2 
Q 227.372213 33.8 224.972213 33.8 
L 94.884713 33.8 
Q 92.484713 33.8 92.484713 36.2 
L 92.484713 87.84125 
Q 92.484713 90.24125 94.884713 90.24125 
z
" style="fill: #ffffff; opacity: 0.8; stroke: #cccccc; stroke-linejoin: miter"/>
    </g>
    <g id="patch_9">
     <path d="M 97.284713 47.718125 
L 121.284713 47.718125 
L 121.284713 39.318125 
L 97.284713 39.318125 
z
" style="fill: #f08080; fill-opacity: 0.3; stroke: #f08080; stroke-opacity: 0.3; stroke-linejoin: miter"/>
    </g>
    <g id="text_11">
     <!-- prior -->
     <g transform="translate(130.884713 47.718125) scale(0.12 -0.12)">
      <defs>
       <path id="DejaVuSans-70" d="M 1159 525 
L 1159 -1331 
L 581 -1331 
L 581 3500 
L 1159 3500 
L 1159 2969 
Q 1341 3281 1617 3432 
Q 1894 3584 2278 3584 
Q 2916 3584 3314 3078 
Q 3713 2572 3713 1747 
Q 3713 922 3314 415 
Q 2916 -91 2278 -91 
Q 1894 -91 1617 61 
Q 1341 213 1159 525 
z
M 3116 1747 
Q 3116 2381 2855 2742 
Q 2594 3103 2138 3103 
Q 1681 3103 1420 2742 
Q 1159 2381 1159 1747 
Q 1159 1113 1420 752 
Q 1681 391 2138 391 
Q 2594 391 2855 752 
Q 3116 1113 3116 1747 
z
" transform="scale(0.015625)"/>
       <path id="DejaVuSans-72" d="M 2631 2963 
Q 2534 3019 2420 3045 
Q 2306 3072 2169 3072 
Q 1681 3072 1420 2755 
Q 1159 2438 1159 1844 
L 1159 0 
L 581 0 
L 581 3500 
L 1159 3500 
L 1159 2956 
Q 1341 3275 1631 3429 
Q 1922 3584 2338 3584 
Q 2397 3584 2469 3576 
Q 2541 3569 2628 3553 
L 2631 2963 
z
" transform="scale(0.015625)"/>
       <path id="DejaVuSans-6f" d="M 1959 3097 
Q 1497 3097 1228 2736 
Q 959 2375 959 1747 
Q 959 1119 1226 758 
Q 1494 397 1959 397 
Q 2419 397 2687 759 
Q 2956 1122 2956 1747 
Q 2956 2369 2687 2733 
Q 2419 3097 1959 3097 
z
M 1959 3584 
Q 2709 3584 3137 3096 
Q 3566 2609 3566 1747 
Q 3566 888 3137 398 
Q 2709 -91 1959 -91 
Q 1206 -91 779 398 
Q 353 888 353 1747 
Q 353 2609 779 3096 
Q 1206 3584 1959 3584 
z
" transform="scale(0.015625)"/>
      </defs>
      <use xlink:href="#DejaVuSans-70"/>
      <use xlink:href="#DejaVuSans-72" x="63.476562"/>
      <use xlink:href="#DejaVuSans-69" x="104.589844"/>
      <use xlink:href="#DejaVuSans-6f" x="132.373047"/>
      <use xlink:href="#DejaVuSans-72" x="193.554688"/>
     </g>
    </g>
    <g id="patch_10">
     <path d="M 97.284713 65.331875 
L 121.284713 65.331875 
L 121.284713 56.931875 
L 97.284713 56.931875 
z
" style="fill: #4682b4; opacity: 0.5"/>
    </g>
    <g id="text_12">
     <!-- posterior -->
     <g transform="translate(130.884713 65.331875) scale(0.12 -0.12)">
      <use xlink:href="#DejaVuSans-70"/>
      <use xlink:href="#DejaVuSans-6f" x="63.476562"/>
      <use xlink:href="#DejaVuSans-73" x="124.658203"/>
      <use xlink:href="#DejaVuSans-74" x="176.757812"/>
      <use xlink:href="#DejaVuSans-65" x="215.966797"/>
      <use xlink:href="#DejaVuSans-72" x="277.490234"/>
      <use xlink:href="#DejaVuSans-69" x="318.603516"/>
      <use xlink:href="#DejaVuSans-6f" x="346.386719"/>
      <use xlink:href="#DejaVuSans-72" x="407.568359"/>
     </g>
    </g>
    <g id="line2d_11">
     <path d="M 97.284713 78.745625 
L 109.284713 78.745625 
L 121.284713 78.745625 
" style="fill: none; stroke: #4682b4; stroke-width: 1.5; stroke-linecap: square"/>
    </g>
    <g id="text_13">
     <!-- posterior mean -->
     <g transform="translate(130.884713 82.945625) scale(0.12 -0.12)">
      <defs>
       <path id="DejaVuSans-61" d="M 2194 1759 
Q 1497 1759 1228 1600 
Q 959 1441 959 1056 
Q 959 750 1161 570 
Q 1363 391 1709 391 
Q 2188 391 2477 730 
Q 2766 1069 2766 1631 
L 2766 1759 
L 2194 1759 
z
M 3341 1997 
L 3341 0 
L 2766 0 
L 2766 531 
Q 2569 213 2275 61 
Q 1981 -91 1556 -91 
Q 1019 -91 701 211 
Q 384 513 384 1019 
Q 384 1609 779 1909 
Q 1175 2209 1959 2209 
L 2766 2209 
L 2766 2266 
Q 2766 2663 2505 2880 
Q 2244 3097 1772 3097 
Q 1472 3097 1187 3025 
Q 903 2953 641 2809 
L 641 3341 
Q 956 3463 1253 3523 
Q 1550 3584 1831 3584 
Q 2591 3584 2966 3190 
Q 3341 2797 3341 1997 
z
" transform="scale(0.015625)"/>
      </defs>
      <use xlink:href="#DejaVuSans-70"/>
      <use xlink:href="#DejaVuSans-6f" x="63.476562"/>
      <use xlink:href="#DejaVuSans-73" x="124.658203"/>
      <use xlink:href="#DejaVuSans-74" x="176.757812"/>
      <use xlink:href="#DejaVuSans-65" x="215.966797"/>
      <use xlink:href="#DejaVuSans-72" x="277.490234"/>
      <use xlink:href="#DejaVuSans-69" x="318.603516"/>
      <use xlink:href="#DejaVuSans-6f" x="346.386719"/>
      <use xlink:href="#DejaVuSans-72" x="407.568359"/>
      <use xlink:href="#DejaVuSans-20" x="448.681641"/>
      <use xlink:href="#DejaVuSans-6d" x="480.46875"/>
      <use xlink:href="#DejaVuSans-65" x="577.880859"/>
      <use xlink:href="#DejaVuSans-61" x="639.404297"/>
      <use xlink:href="#DejaVuSans-6e" x="700.683594"/>
     </g>
    </g>
   </g>
  </g>
  <g id="axes_2">
   <g id="patch_11">
    <path d="M 258.377787 134.733333 
L 421.2 134.733333 
L 421.2 27.8 
L 258.377787 27.8 
z
" style="fill: #ffffff"/>
   </g>
   <g id="PolyCollection_2">
    <defs>
     <path id="mbed76e906c" d="M 275.994215 -297.266667 
L 275.994215 -297.566628 
L 278.806557 -297.696545 
L 281.618899 -297.873563 
L 284.431242 -298.110724 
L 287.243584 -298.423093 
L 290.055926 -298.827484 
L 292.868269 -299.341936 
L 295.680611 -299.98489 
L 298.492954 -300.774057 
L 301.305296 -301.724988 
L 304.117638 -302.8494 
L 306.929981 -304.15336 
L 309.742323 -305.635461 
L 312.554665 -307.285182 
L 315.367008 -309.081622 
L 318.17935 -310.992829 
L 320.991692 -312.975881 
L 323.804035 -314.977871 
L 326.616377 -316.937829 
L 329.428719 -318.78954 
L 332.241062 -320.465106 
L 335.053404 -321.899002 
L 337.865747 -323.032293 
L 340.678089 -323.816641 
L 343.490431 -324.217724 
L 346.302774 -324.217724 
L 349.115116 -323.816641 
L 351.927458 -323.032293 
L 354.739801 -321.899002 
L 357.552143 -320.465106 
L 360.364485 -318.78954 
L 363.176828 -316.937829 
L 365.98917 -314.977871 
L 368.801513 -312.975881 
L 371.613855 -310.992829 
L 374.426197 -309.081622 
L 377.23854 -307.285182 
L 380.050882 -305.635461 
L 382.863224 -304.15336 
L 385.675567 -302.8494 
L 388.487909 -301.724988 
L 391.300251 -300.774057 
L 394.112594 -299.98489 
L 396.924936 -299.341936 
L 399.737279 -298.827484 
L 402.549621 -298.423093 
L 405.361963 -298.110724 
L 408.174306 -297.873563 
L 410.986648 -297.696545 
L 413.79899 -297.566628 
L 413.79899 -297.266667 
L 413.79899 -297.266667 
L 410.986648 -297.266667 
L 408.174306 -297.266667 
L 405.361963 -297.266667 
L 402.549621 -297.266667 
L 399.737279 -297.266667 
L 396.924936 -297.266667 
L 394.112594 -297.266667 
L 391.300251 -297.266667 
L 388.487909 -297.266667 
L 385.675567 -297.266667 
L 382.863224 -297.266667 
L 380.050882 -297.266667 
L 377.23854 -297.266667 
L 374.426197 -297.266667 
L 371.613855 -297.266667 
L 368.801513 -297.266667 
L 365.98917 -297.266667 
L 363.176828 -297.266667 
L 360.364485 -297.266667 
L 357.552143 -297.266667 
L 354.739801 -297.266667 
L 351.927458 -297.266667 
L 349.115116 -297.266667 
L 346.302774 -297.266667 
L 343.490431 -297.266667 
L 340.678089 -297.266667 
L 337.865747 -297.266667 
L 335.053404 -297.266667 
L 332.241062 -297.266667 
L 329.428719 -297.266667 
L 326.616377 -297.266667 
L 323.804035 -297.266667 
L 320.991692 -297.266667 
L 318.17935 -297.266667 
L 315.367008 -297.266667 
L 312.554665 -297.266667 
L 309.742323 -297.266667 
L 306.929981 -297.266667 
L 304.117638 -297.266667 
L 301.305296 -297.266667 
L 298.492954 -297.266667 
L 295.680611 -297.266667 
L 292.868269 -297.266667 
L 290.055926 -297.266667 
L 287.243584 -297.266667 
L 284.431242 -297.266667 
L 281.618899 -297.266667 
L 278.806557 -297.266667 
L 275.994215 -297.266667 
z
" style="stroke: #f08080; stroke-opacity: 0.3"/>
    </defs>
    <g clip-path="url(#pd37f23fd79)">
     <use xlink:href="#mbed76e906c" x="0" y="432" style="fill: #f08080; fill-opacity: 0.3; stroke: #f08080; stroke-opacity: 0.3"/>
    </g>
   </g>
   <g id="patch_12">
    <path d="M 265.778797 134.733333 
L 265.778797 133.781433 
L 270.677965 133.781433 
L 270.677965 134.733333 
L 275.577133 134.733333 
L 275.577133 134.098733 
L 280.476302 134.098733 
L 280.476302 133.146832 
L 285.37547 133.146832 
L 285.37547 131.877631 
L 290.274638 131.877631 
L 290.274638 129.65653 
L 295.173807 129.65653 
L 295.173807 126.483528 
L 300.072975 126.483528 
L 300.072975 124.262426 
L 304.972143 124.262426 
L 304.972143 121.406724 
L 309.871311 121.406724 
L 309.871311 116.647221 
L 314.77048 116.647221 
L 314.77048 107.445515 
L 319.669648 107.445515 
L 319.669648 112.839618 
L 324.568816 112.839618 
L 324.568816 108.397415 
L 329.467985 108.397415 
L 329.467985 106.176314 
L 334.367153 106.176314 
L 334.367153 115.06072 
L 339.266321 115.06072 
L 339.266321 116.964521 
L 344.16549 116.964521 
L 344.16549 111.570418 
L 349.064658 111.570418 
L 349.064658 113.791519 
L 353.963826 113.791519 
L 353.963826 114.74342 
L 358.862995 114.74342 
L 358.862995 122.041325 
L 363.762163 122.041325 
L 363.762163 123.310526 
L 368.661331 123.310526 
L 368.661331 124.262426 
L 373.560499 124.262426 
L 373.560499 128.070029 
L 378.459668 128.070029 
L 378.459668 130.608431 
L 383.358836 130.608431 
L 383.358836 132.194932 
L 388.258004 132.194932 
L 388.258004 134.098733 
L 393.157173 134.098733 
L 393.157173 133.464132 
L 398.056341 133.464132 
L 398.056341 134.416033 
L 402.955509 134.416033 
L 402.955509 134.733333 
L 407.854678 134.733333 
L 407.854678 134.416033 
L 412.753846 134.416033 
L 412.753846 134.733333 
L 407.854678 134.733333 
L 407.854678 134.733333 
L 402.955509 134.733333 
L 402.955509 134.733333 
L 398.056341 134.733333 
L 398.056341 134.733333 
L 393.157173 134.733333 
L 393.157173 134.733333 
L 388.258004 134.733333 
L 388.258004 134.733333 
L 383.358836 134.733333 
L 383.358836 134.733333 
L 378.459668 134.733333 
L 378.459668 134.733333 
L 373.560499 134.733333 
L 373.560499 134.733333 
L 368.661331 134.733333 
L 368.661331 134.733333 
L 363.762163 134.733333 
L 363.762163 134.733333 
L 358.862995 134.733333 
L 358.862995 134.733333 
L 353.963826 134.733333 
L 353.963826 134.733333 
L 349.064658 134.733333 
L 349.064658 134.733333 
L 344.16549 134.733333 
L 344.16549 134.733333 
L 339.266321 134.733333 
L 339.266321 134.733333 
L 334.367153 134.733333 
L 334.367153 134.733333 
L 329.467985 134.733333 
L 329.467985 134.733333 
L 324.568816 134.733333 
L 324.568816 134.733333 
L 319.669648 134.733333 
L 319.669648 134.733333 
L 314.77048 134.733333 
L 314.77048 134.733333 
L 309.871311 134.733333 
L 309.871311 134.733333 
L 304.972143 134.733333 
L 304.972143 134.733333 
L 300.072975 134.733333 
L 300.072975 134.733333 
L 295.173807 134.733333 
L 295.173807 134.733333 
L 290.274638 134.733333 
L 290.274638 134.733333 
L 285.37547 134.733333 
L 285.37547 134.733333 
L 280.476302 134.733333 
L 280.476302 134.733333 
L 275.577133 134.733333 
L 275.577133 134.733333 
L 270.677965 134.733333 
L 270.677965 134.733333 
z
" clip-path="url(#pd37f23fd79)" style="fill: #4682b4; opacity: 0.5"/>
   </g>
   <g id="matplotlib.axis_3">
    <g id="xtick_5">
     <g id="line2d_12">
      <g>
       <use xlink:href="#ma15cda4771" x="264.510483" y="134.733333" style="stroke: #000000; stroke-width: 0.8"/>
      </g>
     </g>
     <g id="text_14">
      <!-- −12000 -->
      <g transform="translate(244.41439 149.331771) scale(0.1 -0.1)">
       <defs>
        <path id="DejaVuSans-32" d="M 1228 531 
L 3431 531 
L 3431 0 
L 469 0 
L 469 531 
Q 828 903 1448 1529 
Q 2069 2156 2228 2338 
Q 2531 2678 2651 2914 
Q 2772 3150 2772 3378 
Q 2772 3750 2511 3984 
Q 2250 4219 1831 4219 
Q 1534 4219 1204 4116 
Q 875 4013 500 3803 
L 500 4441 
Q 881 4594 1212 4672 
Q 1544 4750 1819 4750 
Q 2544 4750 2975 4387 
Q 3406 4025 3406 3419 
Q 3406 3131 3298 2873 
Q 3191 2616 2906 2266 
Q 2828 2175 2409 1742 
Q 1991 1309 1228 531 
z
" transform="scale(0.015625)"/>
       </defs>
       <use xlink:href="#DejaVuSans-2212"/>
       <use xlink:href="#DejaVuSans-31" x="83.789062"/>
       <use xlink:href="#DejaVuSans-32" x="147.412109"/>
       <use xlink:href="#DejaVuSans-30" x="211.035156"/>
       <use xlink:href="#DejaVuSans-30" x="274.658203"/>
       <use xlink:href="#DejaVuSans-30" x="338.28125"/>
      </g>
     </g>
    </g>
    <g id="xtick_6">
     <g id="line2d_13">
      <g>
       <use xlink:href="#ma15cda4771" x="321.92914" y="134.733333" style="stroke: #000000; stroke-width: 0.8"/>
      </g>
     </g>
     <g id="text_15">
      <!-- −10000 -->
      <g transform="translate(301.833046 149.331771) scale(0.1 -0.1)">
       <use xlink:href="#DejaVuSans-2212"/>
       <use xlink:href="#DejaVuSans-31" x="83.789062"/>
       <use xlink:href="#DejaVuSans-30" x="147.412109"/>
       <use xlink:href="#DejaVuSans-30" x="211.035156"/>
       <use xlink:href="#DejaVuSans-30" x="274.658203"/>
       <use xlink:href="#DejaVuSans-30" x="338.28125"/>
      </g>
     </g>
    </g>
    <g id="xtick_7">
     <g id="line2d_14">
      <g>
       <use xlink:href="#ma15cda4771" x="379.347796" y="134.733333" style="stroke: #000000; stroke-width: 0.8"/>
      </g>
     </g>
     <g id="text_16">
      <!-- −8000 -->
      <g transform="translate(362.432953 149.331771) scale(0.1 -0.1)">
       <defs>
        <path id="DejaVuSans-38" d="M 2034 2216 
Q 1584 2216 1326 1975 
Q 1069 1734 1069 1313 
Q 1069 891 1326 650 
Q 1584 409 2034 409 
Q 2484 409 2743 651 
Q 3003 894 3003 1313 
Q 3003 1734 2745 1975 
Q 2488 2216 2034 2216 
z
M 1403 2484 
Q 997 2584 770 2862 
Q 544 3141 544 3541 
Q 544 4100 942 4425 
Q 1341 4750 2034 4750 
Q 2731 4750 3128 4425 
Q 3525 4100 3525 3541 
Q 3525 3141 3298 2862 
Q 3072 2584 2669 2484 
Q 3125 2378 3379 2068 
Q 3634 1759 3634 1313 
Q 3634 634 3220 271 
Q 2806 -91 2034 -91 
Q 1263 -91 848 271 
Q 434 634 434 1313 
Q 434 1759 690 2068 
Q 947 2378 1403 2484 
z
M 1172 3481 
Q 1172 3119 1398 2916 
Q 1625 2713 2034 2713 
Q 2441 2713 2670 2916 
Q 2900 3119 2900 3481 
Q 2900 3844 2670 4047 
Q 2441 4250 2034 4250 
Q 1625 4250 1398 4047 
Q 1172 3844 1172 3481 
z
" transform="scale(0.015625)"/>
       </defs>
       <use xlink:href="#DejaVuSans-2212"/>
       <use xlink:href="#DejaVuSans-38" x="83.789062"/>
       <use xlink:href="#DejaVuSans-30" x="147.412109"/>
       <use xlink:href="#DejaVuSans-30" x="211.035156"/>
       <use xlink:href="#DejaVuSans-30" x="274.658203"/>
      </g>
     </g>
    </g>
   </g>
   <g id="matplotlib.axis_4">
    <g id="ytick_5">
     <g id="line2d_15">
      <g>
       <use xlink:href="#mae5e3017f5" x="258.377787" y="134.733333" style="stroke: #000000; stroke-width: 0.8"/>
      </g>
     </g>
    </g>
    <g id="ytick_6">
     <g id="line2d_16">
      <g>
       <use xlink:href="#mae5e3017f5" x="258.377787" y="107.660127" style="stroke: #000000; stroke-width: 0.8"/>
      </g>
     </g>
    </g>
    <g id="ytick_7">
     <g id="line2d_17">
      <g>
       <use xlink:href="#mae5e3017f5" x="258.377787" y="80.58692" style="stroke: #000000; stroke-width: 0.8"/>
      </g>
     </g>
    </g>
    <g id="ytick_8">
     <g id="line2d_18">
      <g>
       <use xlink:href="#mae5e3017f5" x="258.377787" y="53.513713" style="stroke: #000000; stroke-width: 0.8"/>
      </g>
     </g>
    </g>
   </g>
   <g id="line2d_19">
    <path d="M 275.994215 134.433372 
L 278.806557 134.303455 
L 281.618899 134.126437 
L 284.431242 133.889276 
L 287.243584 133.576907 
L 290.055926 133.172516 
L 292.868269 132.658064 
L 295.680611 132.01511 
L 298.492954 131.225943 
L 301.305296 130.275012 
L 304.117638 129.1506 
L 306.929981 127.84664 
L 309.742323 126.364539 
L 312.554665 124.714818 
L 315.367008 122.918378 
L 318.17935 121.007171 
L 320.991692 119.024119 
L 323.804035 117.022129 
L 326.616377 115.062171 
L 329.428719 113.21046 
L 332.241062 111.534894 
L 335.053404 110.100998 
L 337.865747 108.967707 
L 340.678089 108.183359 
L 343.490431 107.782276 
L 346.302774 107.782276 
L 349.115116 108.183359 
L 351.927458 108.967707 
L 354.739801 110.100998 
L 357.552143 111.534894 
L 360.364485 113.21046 
L 363.176828 115.062171 
L 365.98917 117.022129 
L 368.801513 119.024119 
L 371.613855 121.007171 
L 374.426197 122.918378 
L 377.23854 124.714818 
L 380.050882 126.364539 
L 382.863224 127.84664 
L 385.675567 129.1506 
L 388.487909 130.275012 
L 391.300251 131.225943 
L 394.112594 132.01511 
L 396.924936 132.658064 
L 399.737279 133.172516 
L 402.549621 133.576907 
L 405.361963 133.889276 
L 408.174306 134.126437 
L 410.986648 134.303455 
L 413.79899 134.433372 
" clip-path="url(#pd37f23fd79)" style="fill: none; stroke: #f08080; stroke-opacity: 0.8; stroke-width: 1.5; stroke-linecap: square"/>
   </g>
   <g id="line2d_20">
    <path d="M 335.072585 134.733333 
L 335.072585 27.8 
" clip-path="url(#pd37f23fd79)" style="fill: none; stroke: #4682b4; stroke-width: 1.5; stroke-linecap: square"/>
   </g>
   <g id="patch_13">
    <path d="M 258.377787 134.733333 
L 258.377787 27.8 
" style="fill: none; stroke: #000000; stroke-width: 0.8; stroke-linejoin: miter; stroke-linecap: square"/>
   </g>
   <g id="patch_14">
    <path d="M 421.2 134.733333 
L 421.2 27.8 
" style="fill: none; stroke: #000000; stroke-width: 0.8; stroke-linejoin: miter; stroke-linecap: square"/>
   </g>
   <g id="patch_15">
    <path d="M 258.377787 134.733333 
L 421.2 134.733333 
" style="fill: none; stroke: #000000; stroke-width: 0.8; stroke-linejoin: miter; stroke-linecap: square"/>
   </g>
   <g id="patch_16">
    <path d="M 258.377787 27.8 
L 421.2 27.8 
" style="fill: none; stroke: #000000; stroke-width: 0.8; stroke-linejoin: miter; stroke-linecap: square"/>
   </g>
   <g id="text_17">
    <!-- Slip [m] -->
    <g transform="translate(312.506394 21.8) scale(0.14 -0.14)">
     <defs>
      <path id="DejaVuSans-53" d="M 3425 4513 
L 3425 3897 
Q 3066 4069 2747 4153 
Q 2428 4238 2131 4238 
Q 1616 4238 1336 4038 
Q 1056 3838 1056 3469 
Q 1056 3159 1242 3001 
Q 1428 2844 1947 2747 
L 2328 2669 
Q 3034 2534 3370 2195 
Q 3706 1856 3706 1288 
Q 3706 609 3251 259 
Q 2797 -91 1919 -91 
Q 1588 -91 1214 -16 
Q 841 59 441 206 
L 441 856 
Q 825 641 1194 531 
Q 1563 422 1919 422 
Q 2459 422 2753 634 
Q 3047 847 3047 1241 
Q 3047 1584 2836 1778 
Q 2625 1972 2144 2069 
L 1759 2144 
Q 1053 2284 737 2584 
Q 422 2884 422 3419 
Q 422 4038 858 4394 
Q 1294 4750 2059 4750 
Q 2388 4750 2728 4690 
Q 3069 4631 3425 4513 
z
" transform="scale(0.015625)"/>
      <path id="DejaVuSans-6c" d="M 603 4863 
L 1178 4863 
L 1178 0 
L 603 0 
L 603 4863 
z
" transform="scale(0.015625)"/>
     </defs>
     <use xlink:href="#DejaVuSans-53"/>
     <use xlink:href="#DejaVuSans-6c" x="63.476562"/>
     <use xlink:href="#DejaVuSans-69" x="91.259766"/>
     <use xlink:href="#DejaVuSans-70" x="119.042969"/>
     <use xlink:href="#DejaVuSans-20" x="182.519531"/>
     <use xlink:href="#DejaVuSans-5b" x="214.306641"/>
     <use xlink:href="#DejaVuSans-6d" x="253.320312"/>
     <use xlink:href="#DejaVuSans-5d" x="350.732422"/>
    </g>
   </g>
  </g>
  <g id="axes_3">
   <g id="patch_17">
    <path d="M 70.55 269.466667 
L 233.372213 269.466667 
L 233.372213 162.533333 
L 70.55 162.533333 
z
" style="fill: #ffffff"/>
   </g>
   <g id="PolyCollection_3">
    <defs>
     <path id="m355dc91723" d="M 77.95101 -162.533333 
L 77.95101 -163.333229 
L 80.97183 -163.679675 
L 83.99265 -164.151724 
L 87.013471 -164.784154 
L 90.034291 -165.617137 
L 93.055111 -166.695513 
L 96.075931 -168.067384 
L 99.096752 -169.781928 
L 102.117572 -171.886373 
L 105.138392 -174.422189 
L 108.159212 -177.420622 
L 111.180033 -180.897849 
L 114.200853 -184.850118 
L 117.221673 -189.249373 
L 120.242494 -194.039881 
L 123.263314 -199.136433 
L 126.284134 -204.424572 
L 129.304954 -209.763212 
L 132.325775 -214.989767 
L 135.346595 -219.927663 
L 138.367415 -224.395839 
L 141.388236 -228.219561 
L 144.409056 -231.24167 
L 147.429876 -233.333265 
L 150.450696 -234.40282 
L 153.471517 -234.40282 
L 156.492337 -233.333265 
L 159.513157 -231.24167 
L 162.533977 -228.219561 
L 165.554798 -224.395839 
L 168.575618 -219.927663 
L 171.596438 -214.989767 
L 174.617259 -209.763212 
L 177.638079 -204.424572 
L 180.658899 -199.136433 
L 183.679719 -194.039881 
L 186.70054 -189.249373 
L 189.72136 -184.850118 
L 192.74218 -180.897849 
L 195.763001 -177.420622 
L 198.783821 -174.422189 
L 201.804641 -171.886373 
L 204.825461 -169.781928 
L 207.846282 -168.067384 
L 210.867102 -166.695513 
L 213.887922 -165.617137 
L 216.908742 -164.784154 
L 219.929563 -164.151724 
L 222.950383 -163.679675 
L 225.971203 -163.333229 
L 225.971203 -162.533333 
L 225.971203 -162.533333 
L 222.950383 -162.533333 
L 219.929563 -162.533333 
L 216.908742 -162.533333 
L 213.887922 -162.533333 
L 210.867102 -162.533333 
L 207.846282 -162.533333 
L 204.825461 -162.533333 
L 201.804641 -162.533333 
L 198.783821 -162.533333 
L 195.763001 -162.533333 
L 192.74218 -162.533333 
L 189.72136 -162.533333 
L 186.70054 -162.533333 
L 183.679719 -162.533333 
L 180.658899 -162.533333 
L 177.638079 -162.533333 
L 174.617259 -162.533333 
L 171.596438 -162.533333 
L 168.575618 -162.533333 
L 165.554798 -162.533333 
L 162.533977 -162.533333 
L 159.513157 -162.533333 
L 156.492337 -162.533333 
L 153.471517 -162.533333 
L 150.450696 -162.533333 
L 147.429876 -162.533333 
L 144.409056 -162.533333 
L 141.388236 -162.533333 
L 138.367415 -162.533333 
L 135.346595 -162.533333 
L 132.325775 -162.533333 
L 129.304954 -162.533333 
L 126.284134 -162.533333 
L 123.263314 -162.533333 
L 120.242494 -162.533333 
L 117.221673 -162.533333 
L 114.200853 -162.533333 
L 111.180033 -162.533333 
L 108.159212 -162.533333 
L 105.138392 -162.533333 
L 102.117572 -162.533333 
L 99.096752 -162.533333 
L 96.075931 -162.533333 
L 93.055111 -162.533333 
L 90.034291 -162.533333 
L 87.013471 -162.533333 
L 83.99265 -162.533333 
L 80.97183 -162.533333 
L 77.95101 -162.533333 
z
" style="stroke: #f08080; stroke-opacity: 0.3"/>
    </defs>
    <g clip-path="url(#p2413484233)">
     <use xlink:href="#m355dc91723" x="0" y="432" style="fill: #f08080; fill-opacity: 0.3; stroke: #f08080; stroke-opacity: 0.3"/>
    </g>
   </g>
   <g id="patch_18">
    <path d="M 80.894861 269.466667 
L 80.894861 268.404655 
L 85.087514 268.404655 
L 85.087514 268.404655 
L 89.280166 268.404655 
L 89.280166 266.280632 
L 93.472818 266.280632 
L 93.472818 265.21862 
L 97.665471 265.21862 
L 97.665471 265.21862 
L 101.858123 265.21862 
L 101.858123 259.908561 
L 106.050776 259.908561 
L 106.050776 262.032585 
L 110.243428 262.032585 
L 110.243428 252.474479 
L 114.43608 252.474479 
L 114.43608 239.730339 
L 118.628733 239.730339 
L 118.628733 240.792351 
L 122.821385 240.792351 
L 122.821385 201.497918 
L 127.014037 201.497918 
L 127.014037 209.994011 
L 131.20669 209.994011 
L 131.20669 209.994011 
L 135.399342 209.994011 
L 135.399342 198.311883 
L 139.591995 198.311883 
L 139.591995 172.823602 
L 143.784647 172.823602 
L 143.784647 185.567742 
L 147.977299 185.567742 
L 147.977299 169.637567 
L 152.169952 169.637567 
L 152.169952 194.063836 
L 156.362604 194.063836 
L 156.362604 199.373894 
L 160.555257 199.373894 
L 160.555257 188.753777 
L 164.747909 188.753777 
L 164.747909 216.366081 
L 168.940561 216.366081 
L 168.940561 234.42028 
L 173.133214 234.42028 
L 173.133214 240.792351 
L 177.325866 240.792351 
L 177.325866 237.606316 
L 181.518519 237.606316 
L 181.518519 256.722526 
L 185.711171 256.722526 
L 185.711171 259.908561 
L 189.903823 259.908561 
L 189.903823 260.970573 
L 194.096476 260.970573 
L 194.096476 262.032585 
L 198.289128 262.032585 
L 198.289128 266.280632 
L 202.48178 266.280632 
L 202.48178 268.404655 
L 206.674433 268.404655 
L 206.674433 269.466667 
L 202.48178 269.466667 
L 202.48178 269.466667 
L 198.289128 269.466667 
L 198.289128 269.466667 
L 194.096476 269.466667 
L 194.096476 269.466667 
L 189.903823 269.466667 
L 189.903823 269.466667 
L 185.711171 269.466667 
L 185.711171 269.466667 
L 181.518519 269.466667 
L 181.518519 269.466667 
L 177.325866 269.466667 
L 177.325866 269.466667 
L 173.133214 269.466667 
L 173.133214 269.466667 
L 168.940561 269.466667 
L 168.940561 269.466667 
L 164.747909 269.466667 
L 164.747909 269.466667 
L 160.555257 269.466667 
L 160.555257 269.466667 
L 156.362604 269.466667 
L 156.362604 269.466667 
L 152.169952 269.466667 
L 152.169952 269.466667 
L 147.977299 269.466667 
L 147.977299 269.466667 
L 143.784647 269.466667 
L 143.784647 269.466667 
L 139.591995 269.466667 
L 139.591995 269.466667 
L 135.399342 269.466667 
L 135.399342 269.466667 
L 131.20669 269.466667 
L 131.20669 269.466667 
L 127.014037 269.466667 
L 127.014037 269.466667 
L 122.821385 269.466667 
L 122.821385 269.466667 
L 118.628733 269.466667 
L 118.628733 269.466667 
L 114.43608 269.466667 
L 114.43608 269.466667 
L 110.243428 269.466667 
L 110.243428 269.466667 
L 106.050776 269.466667 
L 106.050776 269.466667 
L 101.858123 269.466667 
L 101.858123 269.466667 
L 97.665471 269.466667 
L 97.665471 269.466667 
L 93.472818 269.466667 
L 93.472818 269.466667 
L 89.280166 269.466667 
L 89.280166 269.466667 
L 85.087514 269.466667 
L 85.087514 269.466667 
z
" clip-path="url(#p2413484233)" style="fill: #4682b4; opacity: 0.5"/>
   </g>
   <g id="matplotlib.axis_5">
    <g id="xtick_8">
     <g id="line2d_21">
      <g>
       <use xlink:href="#ma15cda4771" x="79.595678" y="269.466667" style="stroke: #000000; stroke-width: 0.8"/>
      </g>
     </g>
     <g id="text_18">
      <!-- 1500 -->
      <g transform="translate(66.870678 284.065104) scale(0.1 -0.1)">
       <use xlink:href="#DejaVuSans-31"/>
       <use xlink:href="#DejaVuSans-35" x="63.623047"/>
       <use xlink:href="#DejaVuSans-30" x="127.246094"/>
       <use xlink:href="#DejaVuSans-30" x="190.869141"/>
      </g>
     </g>
    </g>
    <g id="xtick_9">
     <g id="line2d_22">
      <g>
       <use xlink:href="#ma15cda4771" x="120.712399" y="269.466667" style="stroke: #000000; stroke-width: 0.8"/>
      </g>
     </g>
     <g id="text_19">
      <!-- 2000 -->
      <g transform="translate(107.987399 284.065104) scale(0.1 -0.1)">
       <use xlink:href="#DejaVuSans-32"/>
       <use xlink:href="#DejaVuSans-30" x="63.623047"/>
       <use xlink:href="#DejaVuSans-30" x="127.246094"/>
       <use xlink:href="#DejaVuSans-30" x="190.869141"/>
      </g>
     </g>
    </g>
    <g id="xtick_10">
     <g id="line2d_23">
      <g>
       <use xlink:href="#ma15cda4771" x="161.829119" y="269.466667" style="stroke: #000000; stroke-width: 0.8"/>
      </g>
     </g>
     <g id="text_20">
      <!-- 2500 -->
      <g transform="translate(149.104119 284.065104) scale(0.1 -0.1)">
       <use xlink:href="#DejaVuSans-32"/>
       <use xlink:href="#DejaVuSans-35" x="63.623047"/>
       <use xlink:href="#DejaVuSans-30" x="127.246094"/>
       <use xlink:href="#DejaVuSans-30" x="190.869141"/>
      </g>
     </g>
    </g>
    <g id="xtick_11">
     <g id="line2d_24">
      <g>
       <use xlink:href="#ma15cda4771" x="202.94584" y="269.466667" style="stroke: #000000; stroke-width: 0.8"/>
      </g>
     </g>
     <g id="text_21">
      <!-- 3000 -->
      <g transform="translate(190.22084 284.065104) scale(0.1 -0.1)">
       <defs>
        <path id="DejaVuSans-33" d="M 2597 2516 
Q 3050 2419 3304 2112 
Q 3559 1806 3559 1356 
Q 3559 666 3084 287 
Q 2609 -91 1734 -91 
Q 1441 -91 1130 -33 
Q 819 25 488 141 
L 488 750 
Q 750 597 1062 519 
Q 1375 441 1716 441 
Q 2309 441 2620 675 
Q 2931 909 2931 1356 
Q 2931 1769 2642 2001 
Q 2353 2234 1838 2234 
L 1294 2234 
L 1294 2753 
L 1863 2753 
Q 2328 2753 2575 2939 
Q 2822 3125 2822 3475 
Q 2822 3834 2567 4026 
Q 2313 4219 1838 4219 
Q 1578 4219 1281 4162 
Q 984 4106 628 3988 
L 628 4550 
Q 988 4650 1302 4700 
Q 1616 4750 1894 4750 
Q 2613 4750 3031 4423 
Q 3450 4097 3450 3541 
Q 3450 3153 3228 2886 
Q 3006 2619 2597 2516 
z
" transform="scale(0.015625)"/>
       </defs>
       <use xlink:href="#DejaVuSans-33"/>
       <use xlink:href="#DejaVuSans-30" x="63.623047"/>
       <use xlink:href="#DejaVuSans-30" x="127.246094"/>
       <use xlink:href="#DejaVuSans-30" x="190.869141"/>
      </g>
     </g>
    </g>
   </g>
   <g id="matplotlib.axis_6">
    <g id="ytick_9">
     <g id="line2d_25">
      <g>
       <use xlink:href="#mae5e3017f5" x="70.55" y="269.466667" style="stroke: #000000; stroke-width: 0.8"/>
      </g>
     </g>
     <g id="text_22">
      <!-- 0.0000 -->
      <g transform="translate(28.559375 273.265885) scale(0.1 -0.1)">
       <use xlink:href="#DejaVuSans-30"/>
       <use xlink:href="#DejaVuSans-2e" x="63.623047"/>
       <use xlink:href="#DejaVuSans-30" x="95.410156"/>
       <use xlink:href="#DejaVuSans-30" x="159.033203"/>
       <use xlink:href="#DejaVuSans-30" x="222.65625"/>
       <use xlink:href="#DejaVuSans-30" x="286.279297"/>
      </g>
     </g>
    </g>
    <g id="ytick_10">
     <g id="line2d_26">
      <g>
       <use xlink:href="#mae5e3017f5" x="70.55" y="242.39346" style="stroke: #000000; stroke-width: 0.8"/>
      </g>
     </g>
     <g id="text_23">
      <!-- 0.0005 -->
      <g transform="translate(28.559375 246.192679) scale(0.1 -0.1)">
       <use xlink:href="#DejaVuSans-30"/>
       <use xlink:href="#DejaVuSans-2e" x="63.623047"/>
       <use xlink:href="#DejaVuSans-30" x="95.410156"/>
       <use xlink:href="#DejaVuSans-30" x="159.033203"/>
       <use xlink:href="#DejaVuSans-30" x="222.65625"/>
       <use xlink:href="#DejaVuSans-35" x="286.279297"/>
      </g>
     </g>
    </g>
    <g id="ytick_11">
     <g id="line2d_27">
      <g>
       <use xlink:href="#mae5e3017f5" x="70.55" y="215.320253" style="stroke: #000000; stroke-width: 0.8"/>
      </g>
     </g>
     <g id="text_24">
      <!-- 0.0010 -->
      <g transform="translate(28.559375 219.119472) scale(0.1 -0.1)">
       <use xlink:href="#DejaVuSans-30"/>
       <use xlink:href="#DejaVuSans-2e" x="63.623047"/>
       <use xlink:href="#DejaVuSans-30" x="95.410156"/>
       <use xlink:href="#DejaVuSans-30" x="159.033203"/>
       <use xlink:href="#DejaVuSans-31" x="222.65625"/>
       <use xlink:href="#DejaVuSans-30" x="286.279297"/>
      </g>
     </g>
    </g>
    <g id="ytick_12">
     <g id="line2d_28">
      <g>
       <use xlink:href="#mae5e3017f5" x="70.55" y="188.247046" style="stroke: #000000; stroke-width: 0.8"/>
      </g>
     </g>
     <g id="text_25">
      <!-- 0.0015 -->
      <g transform="translate(28.559375 192.046265) scale(0.1 -0.1)">
       <use xlink:href="#DejaVuSans-30"/>
       <use xlink:href="#DejaVuSans-2e" x="63.623047"/>
       <use xlink:href="#DejaVuSans-30" x="95.410156"/>
       <use xlink:href="#DejaVuSans-30" x="159.033203"/>
       <use xlink:href="#DejaVuSans-31" x="222.65625"/>
       <use xlink:href="#DejaVuSans-35" x="286.279297"/>
      </g>
     </g>
    </g>
    <g id="text_26">
     <!-- Density -->
     <g transform="translate(21.647812 242.612031) rotate(-90) scale(0.14 -0.14)">
      <use xlink:href="#DejaVuSans-44"/>
      <use xlink:href="#DejaVuSans-65" x="77.001953"/>
      <use xlink:href="#DejaVuSans-6e" x="138.525391"/>
      <use xlink:href="#DejaVuSans-73" x="201.904297"/>
      <use xlink:href="#DejaVuSans-69" x="254.003906"/>
      <use xlink:href="#DejaVuSans-74" x="281.787109"/>
      <use xlink:href="#DejaVuSans-79" x="320.996094"/>
     </g>
    </g>
   </g>
   <g id="line2d_29">
    <path d="M 77.95101 268.666771 
L 80.97183 268.320325 
L 83.99265 267.848276 
L 87.013471 267.215846 
L 90.034291 266.382863 
L 93.055111 265.304487 
L 96.075931 263.932616 
L 99.096752 262.218072 
L 102.117572 260.113627 
L 105.138392 257.577811 
L 108.159212 254.579378 
L 111.180033 251.102151 
L 114.200853 247.149882 
L 117.221673 242.750627 
L 120.242494 237.960119 
L 123.263314 232.863567 
L 126.284134 227.575428 
L 129.304954 222.236788 
L 132.325775 217.010233 
L 135.346595 212.072337 
L 138.367415 207.604161 
L 141.388236 203.780439 
L 144.409056 200.75833 
L 147.429876 198.666735 
L 150.450696 197.59718 
L 153.471517 197.59718 
L 156.492337 198.666735 
L 159.513157 200.75833 
L 162.533977 203.780439 
L 165.554798 207.604161 
L 168.575618 212.072337 
L 171.596438 217.010233 
L 174.617259 222.236788 
L 177.638079 227.575428 
L 180.658899 232.863567 
L 183.679719 237.960119 
L 186.70054 242.750627 
L 189.72136 247.149882 
L 192.74218 251.102151 
L 195.763001 254.579378 
L 198.783821 257.577811 
L 201.804641 260.113627 
L 204.825461 262.218072 
L 207.846282 263.932616 
L 210.867102 265.304487 
L 213.887922 266.382863 
L 216.908742 267.215846 
L 219.929563 267.848276 
L 222.950383 268.320325 
L 225.971203 268.666771 
" clip-path="url(#p2413484233)" style="fill: none; stroke: #f08080; stroke-opacity: 0.8; stroke-width: 1.5; stroke-linecap: square"/>
   </g>
   <g id="line2d_30">
    <path d="M 147.160647 269.466667 
L 147.160647 162.533333 
" clip-path="url(#p2413484233)" style="fill: none; stroke: #4682b4; stroke-width: 1.5; stroke-linecap: square"/>
   </g>
   <g id="patch_19">
    <path d="M 70.55 269.466667 
L 70.55 162.533333 
" style="fill: none; stroke: #000000; stroke-width: 0.8; stroke-linejoin: miter; stroke-linecap: square"/>
   </g>
   <g id="patch_20">
    <path d="M 233.372213 269.466667 
L 233.372213 162.533333 
" style="fill: none; stroke: #000000; stroke-width: 0.8; stroke-linejoin: miter; stroke-linecap: square"/>
   </g>
   <g id="patch_21">
    <path d="M 70.55 269.466667 
L 233.372213 269.466667 
" style="fill: none; stroke: #000000; stroke-width: 0.8; stroke-linejoin: miter; stroke-linecap: square"/>
   </g>
   <g id="patch_22">
    <path d="M 70.55 162.533333 
L 233.372213 162.533333 
" style="fill: none; stroke: #000000; stroke-width: 0.8; stroke-linejoin: miter; stroke-linecap: square"/>
   </g>
  </g>
  <g id="axes_4">
   <g id="patch_23">
    <path d="M 258.377787 269.466667 
L 421.2 269.466667 
L 421.2 162.533333 
L 258.377787 162.533333 
z
" style="fill: #ffffff"/>
   </g>
   <g id="PolyCollection_4">
    <defs>
     <path id="m76c8b07821" d="M 270.288789 -162.533333 
L 270.288789 -162.833294 
L 273.217569 -162.963212 
L 276.146349 -163.14023 
L 279.075128 -163.377391 
L 282.003908 -163.68976 
L 284.932687 -164.094151 
L 287.861467 -164.608602 
L 290.790247 -165.251556 
L 293.719026 -166.040723 
L 296.647806 -166.991654 
L 299.576585 -168.116067 
L 302.505365 -169.420027 
L 305.434145 -170.902128 
L 308.362924 -172.551848 
L 311.291704 -174.348289 
L 314.220483 -176.259496 
L 317.149263 -178.242548 
L 320.078043 -180.244538 
L 323.006822 -182.204496 
L 325.935602 -184.056207 
L 328.864382 -185.731773 
L 331.793161 -187.165669 
L 334.721941 -188.298959 
L 337.65072 -189.083308 
L 340.5795 -189.484391 
L 343.50828 -189.484391 
L 346.437059 -189.083308 
L 349.365839 -188.298959 
L 352.294618 -187.165669 
L 355.223398 -185.731773 
L 358.152178 -184.056207 
L 361.080957 -182.204496 
L 364.009737 -180.244538 
L 366.938517 -178.242548 
L 369.867296 -176.259496 
L 372.796076 -174.348289 
L 375.724855 -172.551848 
L 378.653635 -170.902128 
L 381.582415 -169.420027 
L 384.511194 -168.116067 
L 387.439974 -166.991654 
L 390.368753 -166.040723 
L 393.297533 -165.251556 
L 396.226313 -164.608602 
L 399.155092 -164.094151 
L 402.083872 -163.68976 
L 405.012651 -163.377391 
L 407.941431 -163.14023 
L 410.870211 -162.963212 
L 413.79899 -162.833294 
L 413.79899 -162.533333 
L 413.79899 -162.533333 
L 410.870211 -162.533333 
L 407.941431 -162.533333 
L 405.012651 -162.533333 
L 402.083872 -162.533333 
L 399.155092 -162.533333 
L 396.226313 -162.533333 
L 393.297533 -162.533333 
L 390.368753 -162.533333 
L 387.439974 -162.533333 
L 384.511194 -162.533333 
L 381.582415 -162.533333 
L 378.653635 -162.533333 
L 375.724855 -162.533333 
L 372.796076 -162.533333 
L 369.867296 -162.533333 
L 366.938517 -162.533333 
L 364.009737 -162.533333 
L 361.080957 -162.533333 
L 358.152178 -162.533333 
L 355.223398 -162.533333 
L 352.294618 -162.533333 
L 349.365839 -162.533333 
L 346.437059 -162.533333 
L 343.50828 -162.533333 
L 340.5795 -162.533333 
L 337.65072 -162.533333 
L 334.721941 -162.533333 
L 331.793161 -162.533333 
L 328.864382 -162.533333 
L 325.935602 -162.533333 
L 323.006822 -162.533333 
L 320.078043 -162.533333 
L 317.149263 -162.533333 
L 314.220483 -162.533333 
L 311.291704 -162.533333 
L 308.362924 -162.533333 
L 305.434145 -162.533333 
L 302.505365 -162.533333 
L 299.576585 -162.533333 
L 296.647806 -162.533333 
L 293.719026 -162.533333 
L 290.790247 -162.533333 
L 287.861467 -162.533333 
L 284.932687 -162.533333 
L 282.003908 -162.533333 
L 279.075128 -162.533333 
L 276.146349 -162.533333 
L 273.217569 -162.533333 
L 270.288789 -162.533333 
z
" style="stroke: #f08080; stroke-opacity: 0.3"/>
    </defs>
    <g clip-path="url(#pb47e26c1c8)">
     <use xlink:href="#m76c8b07821" x="0" y="432" style="fill: #f08080; fill-opacity: 0.3; stroke: #f08080; stroke-opacity: 0.3"/>
    </g>
   </g>
   <g id="patch_24">
    <path d="M 265.778797 269.466667 
L 265.778797 268.399525 
L 270.329835 268.399525 
L 270.329835 268.755239 
L 274.880872 268.755239 
L 274.880872 268.043811 
L 279.43191 268.043811 
L 279.43191 268.043811 
L 283.982948 268.043811 
L 283.982948 267.332384 
L 288.533986 267.332384 
L 288.533986 262.708103 
L 293.085024 262.708103 
L 293.085024 264.486673 
L 297.636062 264.486673 
L 297.636062 261.996676 
L 302.1871 261.996676 
L 302.1871 257.728109 
L 306.738138 257.728109 
L 306.738138 256.305254 
L 311.289176 256.305254 
L 311.289176 254.170971 
L 315.840214 254.170971 
L 315.840214 249.546691 
L 320.391251 249.546691 
L 320.391251 243.855269 
L 324.942289 243.855269 
L 324.942289 245.633838 
L 329.493327 245.633838 
L 329.493327 235.318137 
L 334.044365 235.318137 
L 334.044365 240.298131 
L 338.595403 240.298131 
L 338.595403 241.009558 
L 343.146441 241.009558 
L 343.146441 244.210983 
L 347.697479 244.210983 
L 347.697479 243.499555 
L 352.248517 243.499555 
L 352.248517 252.748116 
L 356.799555 252.748116 
L 356.799555 254.882399 
L 361.350593 254.882399 
L 361.350593 255.94954 
L 365.90163 255.94954 
L 365.90163 260.929534 
L 370.452668 260.929534 
L 370.452668 263.775245 
L 375.003706 263.775245 
L 375.003706 264.486673 
L 379.554744 264.486673 
L 379.554744 263.419531 
L 384.105782 263.419531 
L 384.105782 267.332384 
L 388.65682 267.332384 
L 388.65682 267.688097 
L 393.207858 267.688097 
L 393.207858 267.332384 
L 397.758896 267.332384 
L 397.758896 268.399525 
L 402.309934 268.399525 
L 402.309934 269.466667 
L 397.758896 269.466667 
L 397.758896 269.466667 
L 393.207858 269.466667 
L 393.207858 269.466667 
L 388.65682 269.466667 
L 388.65682 269.466667 
L 384.105782 269.466667 
L 384.105782 269.466667 
L 379.554744 269.466667 
L 379.554744 269.466667 
L 375.003706 269.466667 
L 375.003706 269.466667 
L 370.452668 269.466667 
L 370.452668 269.466667 
L 365.90163 269.466667 
L 365.90163 269.466667 
L 361.350593 269.466667 
L 361.350593 269.466667 
L 356.799555 269.466667 
L 356.799555 269.466667 
L 352.248517 269.466667 
L 352.248517 269.466667 
L 347.697479 269.466667 
L 347.697479 269.466667 
L 343.146441 269.466667 
L 343.146441 269.466667 
L 338.595403 269.466667 
L 338.595403 269.466667 
L 334.044365 269.466667 
L 334.044365 269.466667 
L 329.493327 269.466667 
L 329.493327 269.466667 
L 324.942289 269.466667 
L 324.942289 269.466667 
L 320.391251 269.466667 
L 320.391251 269.466667 
L 315.840214 269.466667 
L 315.840214 269.466667 
L 311.289176 269.466667 
L 311.289176 269.466667 
L 306.738138 269.466667 
L 306.738138 269.466667 
L 302.1871 269.466667 
L 302.1871 269.466667 
L 297.636062 269.466667 
L 297.636062 269.466667 
L 293.085024 269.466667 
L 293.085024 269.466667 
L 288.533986 269.466667 
L 288.533986 269.466667 
L 283.982948 269.466667 
L 283.982948 269.466667 
L 279.43191 269.466667 
L 279.43191 269.466667 
L 274.880872 269.466667 
L 274.880872 269.466667 
L 270.329835 269.466667 
L 270.329835 269.466667 
z
" clip-path="url(#pb47e26c1c8)" style="fill: #4682b4; opacity: 0.5"/>
   </g>
   <g id="matplotlib.axis_7">
    <g id="xtick_12">
     <g id="line2d_31">
      <g>
       <use xlink:href="#ma15cda4771" x="312.145931" y="269.466667" style="stroke: #000000; stroke-width: 0.8"/>
      </g>
     </g>
     <g id="text_27">
      <!-- −10000 -->
      <g transform="translate(292.049838 284.065104) scale(0.1 -0.1)">
       <use xlink:href="#DejaVuSans-2212"/>
       <use xlink:href="#DejaVuSans-31" x="83.789062"/>
       <use xlink:href="#DejaVuSans-30" x="147.412109"/>
       <use xlink:href="#DejaVuSans-30" x="211.035156"/>
       <use xlink:href="#DejaVuSans-30" x="274.658203"/>
       <use xlink:href="#DejaVuSans-30" x="338.28125"/>
      </g>
     </g>
    </g>
    <g id="xtick_13">
     <g id="line2d_32">
      <g>
       <use xlink:href="#ma15cda4771" x="371.941848" y="269.466667" style="stroke: #000000; stroke-width: 0.8"/>
      </g>
     </g>
     <g id="text_28">
      <!-- −8000 -->
      <g transform="translate(355.027005 284.065104) scale(0.1 -0.1)">
       <use xlink:href="#DejaVuSans-2212"/>
       <use xlink:href="#DejaVuSans-38" x="83.789062"/>
       <use xlink:href="#DejaVuSans-30" x="147.412109"/>
       <use xlink:href="#DejaVuSans-30" x="211.035156"/>
       <use xlink:href="#DejaVuSans-30" x="274.658203"/>
      </g>
     </g>
    </g>
   </g>
   <g id="matplotlib.axis_8">
    <g id="ytick_13">
     <g id="line2d_33">
      <g>
       <use xlink:href="#mae5e3017f5" x="258.377787" y="269.466667" style="stroke: #000000; stroke-width: 0.8"/>
      </g>
     </g>
    </g>
    <g id="ytick_14">
     <g id="line2d_34">
      <g>
       <use xlink:href="#mae5e3017f5" x="258.377787" y="242.39346" style="stroke: #000000; stroke-width: 0.8"/>
      </g>
     </g>
    </g>
    <g id="ytick_15">
     <g id="line2d_35">
      <g>
       <use xlink:href="#mae5e3017f5" x="258.377787" y="215.320253" style="stroke: #000000; stroke-width: 0.8"/>
      </g>
     </g>
    </g>
    <g id="ytick_16">
     <g id="line2d_36">
      <g>
       <use xlink:href="#mae5e3017f5" x="258.377787" y="188.247046" style="stroke: #000000; stroke-width: 0.8"/>
      </g>
     </g>
    </g>
   </g>
   <g id="line2d_37">
    <path d="M 270.288789 269.166706 
L 273.217569 269.036788 
L 276.146349 268.85977 
L 279.075128 268.622609 
L 282.003908 268.31024 
L 284.932687 267.905849 
L 287.861467 267.391398 
L 290.790247 266.748444 
L 293.719026 265.959277 
L 296.647806 265.008346 
L 299.576585 263.883933 
L 302.505365 262.579973 
L 305.434145 261.097872 
L 308.362924 259.448152 
L 311.291704 257.651711 
L 314.220483 255.740504 
L 317.149263 253.757452 
L 320.078043 251.755462 
L 323.006822 249.795504 
L 325.935602 247.943793 
L 328.864382 246.268227 
L 331.793161 244.834331 
L 334.721941 243.701041 
L 337.65072 242.916692 
L 340.5795 242.515609 
L 343.50828 242.515609 
L 346.437059 242.916692 
L 349.365839 243.701041 
L 352.294618 244.834331 
L 355.223398 246.268227 
L 358.152178 247.943793 
L 361.080957 249.795504 
L 364.009737 251.755462 
L 366.938517 253.757452 
L 369.867296 255.740504 
L 372.796076 257.651711 
L 375.724855 259.448152 
L 378.653635 261.097872 
L 381.582415 262.579973 
L 384.511194 263.883933 
L 387.439974 265.008346 
L 390.368753 265.959277 
L 393.297533 266.748444 
L 396.226313 267.391398 
L 399.155092 267.905849 
L 402.083872 268.31024 
L 405.012651 268.622609 
L 407.941431 268.85977 
L 410.870211 269.036788 
L 413.79899 269.166706 
" clip-path="url(#pb47e26c1c8)" style="fill: none; stroke: #f08080; stroke-opacity: 0.8; stroke-width: 1.5; stroke-linecap: square"/>
   </g>
   <g id="line2d_38">
    <path d="M 335.524368 269.466667 
L 335.524368 162.533333 
" clip-path="url(#pb47e26c1c8)" style="fill: none; stroke: #4682b4; stroke-width: 1.5; stroke-linecap: square"/>
   </g>
   <g id="patch_25">
    <path d="M 258.377787 269.466667 
L 258.377787 162.533333 
" style="fill: none; stroke: #000000; stroke-width: 0.8; stroke-linejoin: miter; stroke-linecap: square"/>
   </g>
   <g id="patch_26">
    <path d="M 421.2 269.466667 
L 421.2 162.533333 
" style="fill: none; stroke: #000000; stroke-width: 0.8; stroke-linejoin: miter; stroke-linecap: square"/>
   </g>
   <g id="patch_27">
    <path d="M 258.377787 269.466667 
L 421.2 269.466667 
" style="fill: none; stroke: #000000; stroke-width: 0.8; stroke-linejoin: miter; stroke-linecap: square"/>
   </g>
   <g id="patch_28">
    <path d="M 258.377787 162.533333 
L 421.2 162.533333 
" style="fill: none; stroke: #000000; stroke-width: 0.8; stroke-linejoin: miter; stroke-linecap: square"/>
   </g>
  </g>
  <g id="axes_5">
   <g id="patch_29">
    <path d="M 70.55 404.2 
L 233.372213 404.2 
L 233.372213 297.266667 
L 70.55 297.266667 
z
" style="fill: #ffffff"/>
   </g>
   <g id="PolyCollection_5">
    <defs>
     <path id="mcece03921e" d="M 77.95101 -27.8 
L 77.95101 -28.599896 
L 80.97183 -28.946342 
L 83.99265 -29.418391 
L 87.013471 -30.050821 
L 90.034291 -30.883804 
L 93.055111 -31.962179 
L 96.075931 -33.334051 
L 99.096752 -35.048595 
L 102.117572 -37.15304 
L 105.138392 -39.688856 
L 108.159212 -42.687289 
L 111.180033 -46.164516 
L 114.200853 -50.116785 
L 117.221673 -54.51604 
L 120.242494 -59.306548 
L 123.263314 -64.4031 
L 126.284134 -69.691238 
L 129.304954 -75.029879 
L 132.325775 -80.256434 
L 135.346595 -85.194329 
L 138.367415 -89.662505 
L 141.388236 -93.486228 
L 144.409056 -96.508336 
L 147.429876 -98.599932 
L 150.450696 -99.669487 
L 153.471517 -99.669487 
L 156.492337 -98.599932 
L 159.513157 -96.508336 
L 162.533977 -93.486228 
L 165.554798 -89.662505 
L 168.575618 -85.194329 
L 171.596438 -80.256434 
L 174.617259 -75.029879 
L 177.638079 -69.691238 
L 180.658899 -64.4031 
L 183.679719 -59.306548 
L 186.70054 -54.51604 
L 189.72136 -50.116785 
L 192.74218 -46.164516 
L 195.763001 -42.687289 
L 198.783821 -39.688856 
L 201.804641 -37.15304 
L 204.825461 -35.048595 
L 207.846282 -33.334051 
L 210.867102 -31.962179 
L 213.887922 -30.883804 
L 216.908742 -30.050821 
L 219.929563 -29.418391 
L 222.950383 -28.946342 
L 225.971203 -28.599896 
L 225.971203 -27.8 
L 225.971203 -27.8 
L 222.950383 -27.8 
L 219.929563 -27.8 
L 216.908742 -27.8 
L 213.887922 -27.8 
L 210.867102 -27.8 
L 207.846282 -27.8 
L 204.825461 -27.8 
L 201.804641 -27.8 
L 198.783821 -27.8 
L 195.763001 -27.8 
L 192.74218 -27.8 
L 189.72136 -27.8 
L 186.70054 -27.8 
L 183.679719 -27.8 
L 180.658899 -27.8 
L 177.638079 -27.8 
L 174.617259 -27.8 
L 171.596438 -27.8 
L 168.575618 -27.8 
L 165.554798 -27.8 
L 162.533977 -27.8 
L 159.513157 -27.8 
L 156.492337 -27.8 
L 153.471517 -27.8 
L 150.450696 -27.8 
L 147.429876 -27.8 
L 144.409056 -27.8 
L 141.388236 -27.8 
L 138.367415 -27.8 
L 135.346595 -27.8 
L 132.325775 -27.8 
L 129.304954 -27.8 
L 126.284134 -27.8 
L 123.263314 -27.8 
L 120.242494 -27.8 
L 117.221673 -27.8 
L 114.200853 -27.8 
L 111.180033 -27.8 
L 108.159212 -27.8 
L 105.138392 -27.8 
L 102.117572 -27.8 
L 99.096752 -27.8 
L 96.075931 -27.8 
L 93.055111 -27.8 
L 90.034291 -27.8 
L 87.013471 -27.8 
L 83.99265 -27.8 
L 80.97183 -27.8 
L 77.95101 -27.8 
z
" style="stroke: #f08080; stroke-opacity: 0.3"/>
    </defs>
    <g clip-path="url(#p3ed5645330)">
     <use xlink:href="#mcece03921e" x="0" y="432" style="fill: #f08080; fill-opacity: 0.3; stroke: #f08080; stroke-opacity: 0.3"/>
    </g>
   </g>
   <g id="patch_30">
    <path d="M 83.676689 404.2 
L 83.676689 403.15009 
L 87.917667 403.15009 
L 87.917667 403.15009 
L 92.158646 403.15009 
L 92.158646 403.15009 
L 96.399625 403.15009 
L 96.399625 397.90054 
L 100.640603 397.90054 
L 100.640603 392.65099 
L 104.881582 392.65099 
L 104.881582 388.45135 
L 109.122561 388.45135 
L 109.122561 382.15189 
L 113.363539 382.15189 
L 113.363539 370.60288 
L 117.604518 370.60288 
L 117.604518 351.7045 
L 121.845497 351.7045 
L 121.845497 350.65459 
L 126.086475 350.65459 
L 126.086475 330.7063 
L 130.327454 330.7063 
L 130.327454 337.00576 
L 134.568433 337.00576 
L 134.568433 320.2072 
L 138.809411 320.2072 
L 138.809411 302.35873 
L 143.05039 302.35873 
L 143.05039 304.45855 
L 147.291369 304.45855 
L 147.291369 321.25711 
L 151.532347 321.25711 
L 151.532347 337.00576 
L 155.773326 337.00576 
L 155.773326 317.05747 
L 160.014305 317.05747 
L 160.014305 353.80432 
L 164.255283 353.80432 
L 164.255283 346.45495 
L 168.496262 346.45495 
L 168.496262 379.00216 
L 172.737241 379.00216 
L 172.737241 384.25171 
L 176.978219 384.25171 
L 176.978219 392.65099 
L 181.219198 392.65099 
L 181.219198 391.60108 
L 185.460177 391.60108 
L 185.460177 396.85063 
L 189.701155 396.85063 
L 189.701155 402.10018 
L 193.942134 402.10018 
L 193.942134 404.2 
L 198.183113 404.2 
L 198.183113 404.2 
L 202.424091 404.2 
L 202.424091 404.2 
L 206.66507 404.2 
L 206.66507 403.15009 
L 210.906049 403.15009 
L 210.906049 404.2 
L 206.66507 404.2 
L 206.66507 404.2 
L 202.424091 404.2 
L 202.424091 404.2 
L 198.183113 404.2 
L 198.183113 404.2 
L 193.942134 404.2 
L 193.942134 404.2 
L 189.701155 404.2 
L 189.701155 404.2 
L 185.460177 404.2 
L 185.460177 404.2 
L 181.219198 404.2 
L 181.219198 404.2 
L 176.978219 404.2 
L 176.978219 404.2 
L 172.737241 404.2 
L 172.737241 404.2 
L 168.496262 404.2 
L 168.496262 404.2 
L 164.255283 404.2 
L 164.255283 404.2 
L 160.014305 404.2 
L 160.014305 404.2 
L 155.773326 404.2 
L 155.773326 404.2 
L 151.532347 404.2 
L 151.532347 404.2 
L 147.291369 404.2 
L 147.291369 404.2 
L 143.05039 404.2 
L 143.05039 404.2 
L 138.809411 404.2 
L 138.809411 404.2 
L 134.568433 404.2 
L 134.568433 404.2 
L 130.327454 404.2 
L 130.327454 404.2 
L 126.086475 404.2 
L 126.086475 404.2 
L 121.845497 404.2 
L 121.845497 404.2 
L 117.604518 404.2 
L 117.604518 404.2 
L 113.363539 404.2 
L 113.363539 404.2 
L 109.122561 404.2 
L 109.122561 404.2 
L 104.881582 404.2 
L 104.881582 404.2 
L 100.640603 404.2 
L 100.640603 404.2 
L 96.399625 404.2 
L 96.399625 404.2 
L 92.158646 404.2 
L 92.158646 404.2 
L 87.917667 404.2 
L 87.917667 404.2 
z
" clip-path="url(#p3ed5645330)" style="fill: #4682b4; opacity: 0.5"/>
   </g>
   <g id="matplotlib.axis_9">
    <g id="xtick_14">
     <g id="line2d_39">
      <g>
       <use xlink:href="#ma15cda4771" x="74.990606" y="404.2" style="stroke: #000000; stroke-width: 0.8"/>
      </g>
     </g>
     <g id="text_29">
      <!-- −3000 -->
      <g transform="translate(58.075762 418.798437) scale(0.1 -0.1)">
       <use xlink:href="#DejaVuSans-2212"/>
       <use xlink:href="#DejaVuSans-33" x="83.789062"/>
       <use xlink:href="#DejaVuSans-30" x="147.412109"/>
       <use xlink:href="#DejaVuSans-30" x="211.035156"/>
       <use xlink:href="#DejaVuSans-30" x="274.658203"/>
      </g>
     </g>
    </g>
    <g id="xtick_15">
     <g id="line2d_40">
      <g>
       <use xlink:href="#ma15cda4771" x="116.107326" y="404.2" style="stroke: #000000; stroke-width: 0.8"/>
      </g>
     </g>
     <g id="text_30">
      <!-- −2500 -->
      <g transform="translate(99.192483 418.798437) scale(0.1 -0.1)">
       <use xlink:href="#DejaVuSans-2212"/>
       <use xlink:href="#DejaVuSans-32" x="83.789062"/>
       <use xlink:href="#DejaVuSans-35" x="147.412109"/>
       <use xlink:href="#DejaVuSans-30" x="211.035156"/>
       <use xlink:href="#DejaVuSans-30" x="274.658203"/>
      </g>
     </g>
    </g>
    <g id="xtick_16">
     <g id="line2d_41">
      <g>
       <use xlink:href="#ma15cda4771" x="157.224047" y="404.2" style="stroke: #000000; stroke-width: 0.8"/>
      </g>
     </g>
     <g id="text_31">
      <!-- −2000 -->
      <g transform="translate(140.309203 418.798437) scale(0.1 -0.1)">
       <use xlink:href="#DejaVuSans-2212"/>
       <use xlink:href="#DejaVuSans-32" x="83.789062"/>
       <use xlink:href="#DejaVuSans-30" x="147.412109"/>
       <use xlink:href="#DejaVuSans-30" x="211.035156"/>
       <use xlink:href="#DejaVuSans-30" x="274.658203"/>
      </g>
     </g>
    </g>
    <g id="xtick_17">
     <g id="line2d_42">
      <g>
       <use xlink:href="#ma15cda4771" x="198.340767" y="404.2" style="stroke: #000000; stroke-width: 0.8"/>
      </g>
     </g>
     <g id="text_32">
      <!-- −1500 -->
      <g transform="translate(181.425923 418.798437) scale(0.1 -0.1)">
       <use xlink:href="#DejaVuSans-2212"/>
       <use xlink:href="#DejaVuSans-31" x="83.789062"/>
       <use xlink:href="#DejaVuSans-35" x="147.412109"/>
       <use xlink:href="#DejaVuSans-30" x="211.035156"/>
       <use xlink:href="#DejaVuSans-30" x="274.658203"/>
      </g>
     </g>
    </g>
   </g>
   <g id="matplotlib.axis_10">
    <g id="ytick_17">
     <g id="line2d_43">
      <g>
       <use xlink:href="#mae5e3017f5" x="70.55" y="404.2" style="stroke: #000000; stroke-width: 0.8"/>
      </g>
     </g>
     <g id="text_33">
      <!-- 0.0000 -->
      <g transform="translate(28.559375 407.999219) scale(0.1 -0.1)">
       <use xlink:href="#DejaVuSans-30"/>
       <use xlink:href="#DejaVuSans-2e" x="63.623047"/>
       <use xlink:href="#DejaVuSans-30" x="95.410156"/>
       <use xlink:href="#DejaVuSans-30" x="159.033203"/>
       <use xlink:href="#DejaVuSans-30" x="222.65625"/>
       <use xlink:href="#DejaVuSans-30" x="286.279297"/>
      </g>
     </g>
    </g>
    <g id="ytick_18">
     <g id="line2d_44">
      <g>
       <use xlink:href="#mae5e3017f5" x="70.55" y="377.126793" style="stroke: #000000; stroke-width: 0.8"/>
      </g>
     </g>
     <g id="text_34">
      <!-- 0.0005 -->
      <g transform="translate(28.559375 380.926012) scale(0.1 -0.1)">
       <use xlink:href="#DejaVuSans-30"/>
       <use xlink:href="#DejaVuSans-2e" x="63.623047"/>
       <use xlink:href="#DejaVuSans-30" x="95.410156"/>
       <use xlink:href="#DejaVuSans-30" x="159.033203"/>
       <use xlink:href="#DejaVuSans-30" x="222.65625"/>
       <use xlink:href="#DejaVuSans-35" x="286.279297"/>
      </g>
     </g>
    </g>
    <g id="ytick_19">
     <g id="line2d_45">
      <g>
       <use xlink:href="#mae5e3017f5" x="70.55" y="350.053586" style="stroke: #000000; stroke-width: 0.8"/>
      </g>
     </g>
     <g id="text_35">
      <!-- 0.0010 -->
      <g transform="translate(28.559375 353.852805) scale(0.1 -0.1)">
       <use xlink:href="#DejaVuSans-30"/>
       <use xlink:href="#DejaVuSans-2e" x="63.623047"/>
       <use xlink:href="#DejaVuSans-30" x="95.410156"/>
       <use xlink:href="#DejaVuSans-30" x="159.033203"/>
       <use xlink:href="#DejaVuSans-31" x="222.65625"/>
       <use xlink:href="#DejaVuSans-30" x="286.279297"/>
      </g>
     </g>
    </g>
    <g id="ytick_20">
     <g id="line2d_46">
      <g>
       <use xlink:href="#mae5e3017f5" x="70.55" y="322.98038" style="stroke: #000000; stroke-width: 0.8"/>
      </g>
     </g>
     <g id="text_36">
      <!-- 0.0015 -->
      <g transform="translate(28.559375 326.779598) scale(0.1 -0.1)">
       <use xlink:href="#DejaVuSans-30"/>
       <use xlink:href="#DejaVuSans-2e" x="63.623047"/>
       <use xlink:href="#DejaVuSans-30" x="95.410156"/>
       <use xlink:href="#DejaVuSans-30" x="159.033203"/>
       <use xlink:href="#DejaVuSans-31" x="222.65625"/>
       <use xlink:href="#DejaVuSans-35" x="286.279297"/>
      </g>
     </g>
    </g>
    <g id="text_37">
     <!-- Density -->
     <g transform="translate(21.647812 377.345365) rotate(-90) scale(0.14 -0.14)">
      <use xlink:href="#DejaVuSans-44"/>
      <use xlink:href="#DejaVuSans-65" x="77.001953"/>
      <use xlink:href="#DejaVuSans-6e" x="138.525391"/>
      <use xlink:href="#DejaVuSans-73" x="201.904297"/>
      <use xlink:href="#DejaVuSans-69" x="254.003906"/>
      <use xlink:href="#DejaVuSans-74" x="281.787109"/>
      <use xlink:href="#DejaVuSans-79" x="320.996094"/>
     </g>
    </g>
   </g>
   <g id="line2d_47">
    <path d="M 77.95101 403.400104 
L 80.97183 403.053658 
L 83.99265 402.581609 
L 87.013471 401.949179 
L 90.034291 401.116196 
L 93.055111 400.037821 
L 96.075931 398.665949 
L 99.096752 396.951405 
L 102.117572 394.84696 
L 105.138392 392.311144 
L 108.159212 389.312711 
L 111.180033 385.835484 
L 114.200853 381.883215 
L 117.221673 377.48396 
L 120.242494 372.693452 
L 123.263314 367.5969 
L 126.284134 362.308762 
L 129.304954 356.970121 
L 132.325775 351.743566 
L 135.346595 346.805671 
L 138.367415 342.337495 
L 141.388236 338.513772 
L 144.409056 335.491664 
L 147.429876 333.400068 
L 150.450696 332.330513 
L 153.471517 332.330513 
L 156.492337 333.400068 
L 159.513157 335.491664 
L 162.533977 338.513772 
L 165.554798 342.337495 
L 168.575618 346.805671 
L 171.596438 351.743566 
L 174.617259 356.970121 
L 177.638079 362.308762 
L 180.658899 367.5969 
L 183.679719 372.693452 
L 186.70054 377.48396 
L 189.72136 381.883215 
L 192.74218 385.835484 
L 195.763001 389.312711 
L 198.783821 392.311144 
L 201.804641 394.84696 
L 204.825461 396.951405 
L 207.846282 398.665949 
L 210.867102 400.037821 
L 213.887922 401.116196 
L 216.908742 401.949179 
L 219.929563 402.581609 
L 222.950383 403.053658 
L 225.971203 403.400104 
" clip-path="url(#p3ed5645330)" style="fill: none; stroke: #f08080; stroke-opacity: 0.8; stroke-width: 1.5; stroke-linecap: square"/>
   </g>
   <g id="line2d_48">
    <path d="M 142.877547 404.2 
L 142.877547 297.266667 
" clip-path="url(#p3ed5645330)" style="fill: none; stroke: #4682b4; stroke-width: 1.5; stroke-linecap: square"/>
   </g>
   <g id="patch_31">
    <path d="M 70.55 404.2 
L 70.55 297.266667 
" style="fill: none; stroke: #000000; stroke-width: 0.8; stroke-linejoin: miter; stroke-linecap: square"/>
   </g>
   <g id="patch_32">
    <path d="M 233.372213 404.2 
L 233.372213 297.266667 
" style="fill: none; stroke: #000000; stroke-width: 0.8; stroke-linejoin: miter; stroke-linecap: square"/>
   </g>
   <g id="patch_33">
    <path d="M 70.55 404.2 
L 233.372213 404.2 
" style="fill: none; stroke: #000000; stroke-width: 0.8; stroke-linejoin: miter; stroke-linecap: square"/>
   </g>
   <g id="patch_34">
    <path d="M 70.55 297.266667 
L 233.372213 297.266667 
" style="fill: none; stroke: #000000; stroke-width: 0.8; stroke-linejoin: miter; stroke-linecap: square"/>
   </g>
  </g>
  <g id="axes_6">
   <g id="patch_35">
    <path d="M 258.377787 404.2 
L 421.2 404.2 
L 421.2 297.266667 
L 258.377787 297.266667 
z
" style="fill: #ffffff"/>
   </g>
   <g id="PolyCollection_6">
    <defs>
     <path id="maa06140b78" d="M 272.240367 -27.8 
L 272.240367 -28.099961 
L 275.013047 -28.229878 
L 277.785728 -28.406897 
L 280.558408 -28.644058 
L 283.331088 -28.956426 
L 286.103769 -29.360817 
L 288.876449 -29.875269 
L 291.64913 -30.518223 
L 294.42181 -31.30739 
L 297.194491 -32.258321 
L 299.967171 -33.382733 
L 302.739851 -34.686693 
L 305.512532 -36.168794 
L 308.285212 -37.818515 
L 311.057893 -39.614956 
L 313.830573 -41.526162 
L 316.603253 -43.509214 
L 319.375934 -45.511205 
L 322.148614 -47.471163 
L 324.921295 -49.322873 
L 327.693975 -50.99844 
L 330.466656 -52.432335 
L 333.239336 -53.565626 
L 336.012016 -54.349975 
L 338.784697 -54.751058 
L 341.557377 -54.751058 
L 344.330058 -54.349975 
L 347.102738 -53.565626 
L 349.875418 -52.432335 
L 352.648099 -50.99844 
L 355.420779 -49.322873 
L 358.19346 -47.471163 
L 360.96614 -45.511205 
L 363.738821 -43.509214 
L 366.511501 -41.526162 
L 369.284181 -39.614956 
L 372.056862 -37.818515 
L 374.829542 -36.168794 
L 377.602223 -34.686693 
L 380.374903 -33.382733 
L 383.147584 -32.258321 
L 385.920264 -31.30739 
L 388.692944 -30.518223 
L 391.465625 -29.875269 
L 394.238305 -29.360817 
L 397.010986 -28.956426 
L 399.783666 -28.644058 
L 402.556346 -28.406897 
L 405.329027 -28.229878 
L 408.101707 -28.099961 
L 408.101707 -27.8 
L 408.101707 -27.8 
L 405.329027 -27.8 
L 402.556346 -27.8 
L 399.783666 -27.8 
L 397.010986 -27.8 
L 394.238305 -27.8 
L 391.465625 -27.8 
L 388.692944 -27.8 
L 385.920264 -27.8 
L 383.147584 -27.8 
L 380.374903 -27.8 
L 377.602223 -27.8 
L 374.829542 -27.8 
L 372.056862 -27.8 
L 369.284181 -27.8 
L 366.511501 -27.8 
L 363.738821 -27.8 
L 360.96614 -27.8 
L 358.19346 -27.8 
L 355.420779 -27.8 
L 352.648099 -27.8 
L 349.875418 -27.8 
L 347.102738 -27.8 
L 344.330058 -27.8 
L 341.557377 -27.8 
L 338.784697 -27.8 
L 336.012016 -27.8 
L 333.239336 -27.8 
L 330.466656 -27.8 
L 327.693975 -27.8 
L 324.921295 -27.8 
L 322.148614 -27.8 
L 319.375934 -27.8 
L 316.603253 -27.8 
L 313.830573 -27.8 
L 311.057893 -27.8 
L 308.285212 -27.8 
L 305.512532 -27.8 
L 302.739851 -27.8 
L 299.967171 -27.8 
L 297.194491 -27.8 
L 294.42181 -27.8 
L 291.64913 -27.8 
L 288.876449 -27.8 
L 286.103769 -27.8 
L 283.331088 -27.8 
L 280.558408 -27.8 
L 277.785728 -27.8 
L 275.013047 -27.8 
L 272.240367 -27.8 
z
" style="stroke: #f08080; stroke-opacity: 0.3"/>
    </defs>
    <g clip-path="url(#p6940ab253c)">
     <use xlink:href="#maa06140b78" x="0" y="432" style="fill: #f08080; fill-opacity: 0.3; stroke: #f08080; stroke-opacity: 0.3"/>
    </g>
   </g>
   <g id="patch_36">
    <path d="M 265.778797 404.2 
L 265.778797 403.578767 
L 270.712803 403.578767 
L 270.712803 404.2 
L 275.64681 404.2 
L 275.64681 404.2 
L 280.580816 404.2 
L 280.580816 402.025684 
L 285.514823 402.025684 
L 285.514823 402.3363 
L 290.448829 402.3363 
L 290.448829 401.404451 
L 295.382835 401.404451 
L 295.382835 401.404451 
L 300.316842 401.404451 
L 300.316842 396.434585 
L 305.250848 396.434585 
L 305.250848 395.192119 
L 310.184855 395.192119 
L 310.184855 391.154103 
L 315.118861 391.154103 
L 315.118861 385.563005 
L 320.052868 385.563005 
L 320.052868 381.835606 
L 324.986874 381.835606 
L 324.986874 382.146222 
L 329.920881 382.146222 
L 329.920881 378.418823 
L 334.854887 378.418823 
L 334.854887 380.593139 
L 339.788894 380.593139 
L 339.788894 374.691424 
L 344.7229 374.691424 
L 344.7229 378.108207 
L 349.656906 378.108207 
L 349.656906 385.563005 
L 354.590913 385.563005 
L 354.590913 382.146222 
L 359.524919 382.146222 
L 359.524919 386.494855 
L 364.458926 386.494855 
L 364.458926 387.426704 
L 369.392932 387.426704 
L 369.392932 392.707186 
L 374.326939 392.707186 
L 374.326939 398.919518 
L 379.260945 398.919518 
L 379.260945 400.472601 
L 384.194952 400.472601 
L 384.194952 402.025684 
L 389.128958 402.025684 
L 389.128958 402.025684 
L 394.062965 402.025684 
L 394.062965 402.646917 
L 398.996971 402.646917 
L 398.996971 404.2 
L 403.930977 404.2 
L 403.930977 403.889383 
L 408.864984 403.889383 
L 408.864984 403.578767 
L 413.79899 403.578767 
L 413.79899 404.2 
L 408.864984 404.2 
L 408.864984 404.2 
L 403.930977 404.2 
L 403.930977 404.2 
L 398.996971 404.2 
L 398.996971 404.2 
L 394.062965 404.2 
L 394.062965 404.2 
L 389.128958 404.2 
L 389.128958 404.2 
L 384.194952 404.2 
L 384.194952 404.2 
L 379.260945 404.2 
L 379.260945 404.2 
L 374.326939 404.2 
L 374.326939 404.2 
L 369.392932 404.2 
L 369.392932 404.2 
L 364.458926 404.2 
L 364.458926 404.2 
L 359.524919 404.2 
L 359.524919 404.2 
L 354.590913 404.2 
L 354.590913 404.2 
L 349.656906 404.2 
L 349.656906 404.2 
L 344.7229 404.2 
L 344.7229 404.2 
L 339.788894 404.2 
L 339.788894 404.2 
L 334.854887 404.2 
L 334.854887 404.2 
L 329.920881 404.2 
L 329.920881 404.2 
L 324.986874 404.2 
L 324.986874 404.2 
L 320.052868 404.2 
L 320.052868 404.2 
L 315.118861 404.2 
L 315.118861 404.2 
L 310.184855 404.2 
L 310.184855 404.2 
L 305.250848 404.2 
L 305.250848 404.2 
L 300.316842 404.2 
L 300.316842 404.2 
L 295.382835 404.2 
L 295.382835 404.2 
L 290.448829 404.2 
L 290.448829 404.2 
L 285.514823 404.2 
L 285.514823 404.2 
L 280.580816 404.2 
L 280.580816 404.2 
L 275.64681 404.2 
L 275.64681 404.2 
L 270.712803 404.2 
L 270.712803 404.2 
z
" clip-path="url(#p6940ab253c)" style="fill: #4682b4; opacity: 0.5"/>
   </g>
   <g id="matplotlib.axis_11">
    <g id="xtick_18">
     <g id="line2d_49">
      <g>
       <use xlink:href="#ma15cda4771" x="283.562145" y="404.2" style="stroke: #000000; stroke-width: 0.8"/>
      </g>
     </g>
     <g id="text_38">
      <!-- −14000 -->
      <g transform="translate(263.466051 418.798437) scale(0.1 -0.1)">
       <defs>
        <path id="DejaVuSans-34" d="M 2419 4116 
L 825 1625 
L 2419 1625 
L 2419 4116 
z
M 2253 4666 
L 3047 4666 
L 3047 1625 
L 3713 1625 
L 3713 1100 
L 3047 1100 
L 3047 0 
L 2419 0 
L 2419 1100 
L 313 1100 
L 313 1709 
L 2253 4666 
z
" transform="scale(0.015625)"/>
       </defs>
       <use xlink:href="#DejaVuSans-2212"/>
       <use xlink:href="#DejaVuSans-31" x="83.789062"/>
       <use xlink:href="#DejaVuSans-34" x="147.412109"/>
       <use xlink:href="#DejaVuSans-30" x="211.035156"/>
       <use xlink:href="#DejaVuSans-30" x="274.658203"/>
       <use xlink:href="#DejaVuSans-30" x="338.28125"/>
      </g>
     </g>
    </g>
    <g id="xtick_19">
     <g id="line2d_50">
      <g>
       <use xlink:href="#ma15cda4771" x="340.171037" y="404.2" style="stroke: #000000; stroke-width: 0.8"/>
      </g>
     </g>
     <g id="text_39">
      <!-- −12000 -->
      <g transform="translate(320.074943 418.798437) scale(0.1 -0.1)">
       <use xlink:href="#DejaVuSans-2212"/>
       <use xlink:href="#DejaVuSans-31" x="83.789062"/>
       <use xlink:href="#DejaVuSans-32" x="147.412109"/>
       <use xlink:href="#DejaVuSans-30" x="211.035156"/>
       <use xlink:href="#DejaVuSans-30" x="274.658203"/>
       <use xlink:href="#DejaVuSans-30" x="338.28125"/>
      </g>
     </g>
    </g>
    <g id="xtick_20">
     <g id="line2d_51">
      <g>
       <use xlink:href="#ma15cda4771" x="396.779929" y="404.2" style="stroke: #000000; stroke-width: 0.8"/>
      </g>
     </g>
     <g id="text_40">
      <!-- −10000 -->
      <g transform="translate(376.683835 418.798437) scale(0.1 -0.1)">
       <use xlink:href="#DejaVuSans-2212"/>
       <use xlink:href="#DejaVuSans-31" x="83.789062"/>
       <use xlink:href="#DejaVuSans-30" x="147.412109"/>
       <use xlink:href="#DejaVuSans-30" x="211.035156"/>
       <use xlink:href="#DejaVuSans-30" x="274.658203"/>
       <use xlink:href="#DejaVuSans-30" x="338.28125"/>
      </g>
     </g>
    </g>
   </g>
   <g id="matplotlib.axis_12">
    <g id="ytick_21">
     <g id="line2d_52">
      <g>
       <use xlink:href="#mae5e3017f5" x="258.377787" y="404.2" style="stroke: #000000; stroke-width: 0.8"/>
      </g>
     </g>
    </g>
    <g id="ytick_22">
     <g id="line2d_53">
      <g>
       <use xlink:href="#mae5e3017f5" x="258.377787" y="377.126793" style="stroke: #000000; stroke-width: 0.8"/>
      </g>
     </g>
    </g>
    <g id="ytick_23">
     <g id="line2d_54">
      <g>
       <use xlink:href="#mae5e3017f5" x="258.377787" y="350.053586" style="stroke: #000000; stroke-width: 0.8"/>
      </g>
     </g>
    </g>
    <g id="ytick_24">
     <g id="line2d_55">
      <g>
       <use xlink:href="#mae5e3017f5" x="258.377787" y="322.98038" style="stroke: #000000; stroke-width: 0.8"/>
      </g>
     </g>
    </g>
   </g>
   <g id="line2d_56">
    <path d="M 272.240367 403.900039 
L 275.013047 403.770122 
L 277.785728 403.593103 
L 280.558408 403.355942 
L 283.331088 403.043574 
L 286.103769 402.639183 
L 288.876449 402.124731 
L 291.64913 401.481777 
L 294.42181 400.69261 
L 297.194491 399.741679 
L 299.967171 398.617267 
L 302.739851 397.313307 
L 305.512532 395.831206 
L 308.285212 394.181485 
L 311.057893 392.385044 
L 313.830573 390.473838 
L 316.603253 388.490786 
L 319.375934 386.488795 
L 322.148614 384.528837 
L 324.921295 382.677127 
L 327.693975 381.00156 
L 330.466656 379.567665 
L 333.239336 378.434374 
L 336.012016 377.650025 
L 338.784697 377.248942 
L 341.557377 377.248942 
L 344.330058 377.650025 
L 347.102738 378.434374 
L 349.875418 379.567665 
L 352.648099 381.00156 
L 355.420779 382.677127 
L 358.19346 384.528837 
L 360.96614 386.488795 
L 363.738821 388.490786 
L 366.511501 390.473838 
L 369.284181 392.385044 
L 372.056862 394.181485 
L 374.829542 395.831206 
L 377.602223 397.313307 
L 380.374903 398.617267 
L 383.147584 399.741679 
L 385.920264 400.69261 
L 388.692944 401.481777 
L 391.465625 402.124731 
L 394.238305 402.639183 
L 397.010986 403.043574 
L 399.783666 403.355942 
L 402.556346 403.593103 
L 405.329027 403.770122 
L 408.101707 403.900039 
" clip-path="url(#p6940ab253c)" style="fill: none; stroke: #f08080; stroke-opacity: 0.8; stroke-width: 1.5; stroke-linecap: square"/>
   </g>
   <g id="line2d_57">
    <path d="M 339.896613 404.2 
L 339.896613 297.266667 
" clip-path="url(#p6940ab253c)" style="fill: none; stroke: #4682b4; stroke-width: 1.5; stroke-linecap: square"/>
   </g>
   <g id="patch_37">
    <path d="M 258.377787 404.2 
L 258.377787 297.266667 
" style="fill: none; stroke: #000000; stroke-width: 0.8; stroke-linejoin: miter; stroke-linecap: square"/>
   </g>
   <g id="patch_38">
    <path d="M 421.2 404.2 
L 421.2 297.266667 
" style="fill: none; stroke: #000000; stroke-width: 0.8; stroke-linejoin: miter; stroke-linecap: square"/>
   </g>
   <g id="patch_39">
    <path d="M 258.377787 404.2 
L 421.2 404.2 
" style="fill: none; stroke: #000000; stroke-width: 0.8; stroke-linejoin: miter; stroke-linecap: square"/>
   </g>
   <g id="patch_40">
    <path d="M 258.377787 297.266667 
L 421.2 297.266667 
" style="fill: none; stroke: #000000; stroke-width: 0.8; stroke-linejoin: miter; stroke-linecap: square"/>
   </g>
  </g>
 </g>
 <defs>
  <clipPath id="p4e52f48ff0">
   <rect x="70.55" y="27.8" width="162.822213" height="106.933333"/>
  </clipPath>
  <clipPath id="pd37f23fd79">
   <rect x="258.377787" y="27.8" width="162.822213" height="106.933333"/>
  </clipPath>
  <clipPath id="p2413484233">
   <rect x="70.55" y="162.533333" width="162.822213" height="106.933333"/>
  </clipPath>
  <clipPath id="pb47e26c1c8">
   <rect x="258.377787" y="162.533333" width="162.822213" height="106.933333"/>
  </clipPath>
  <clipPath id="p3ed5645330">
   <rect x="70.55" y="297.266667" width="162.822213" height="106.933333"/>
  </clipPath>
  <clipPath id="p6940ab253c">
   <rect x="258.377787" y="297.266667" width="162.822213" height="106.933333"/>
  </clipPath>
 </defs>
</svg>
